<svg width="36" height="36" viewBox="0 0 36 36" fill="none" xmlns="http://www.w3.org/2000/svg">
<path d="M36 18C36 27.941 27.941 36 18 36C8.06 36 0 27.941 0 18C0 8.06 8.06 0 18 0C27.941 0 36 8.06 36 18Z" fill="#FFCC4D"/>
<path d="M18 21C14.377 21 11.973 20.578 9 20C8.321 19.869 7 20 7 22C7 26 11.595 31 18 31C24.404 31 29 26 29 22C29 20 27.679 19.868 27 20C24.027 20.578 21.623 21 18 21Z" fill="#664500"/>
<path d="M12 23.003V29.964C12 32.964 14 35.964 18 35.964C22 35.964 24 32.964 24 29.964V23.044C17.709 24.336 12 23.003 12 23.003V23.003Z" fill="#5D9040"/>
<path d="M20.97 31.069C20.97 29.701 19.591 29.168 18.483 28.74C17.746 28.456 17.049 28.186 17.049 27.797C17.049 27.154 17.91 27.122 18.083 27.122C18.692 27.122 18.995 27.351 19.263 27.552C19.468 27.707 19.681 27.867 19.976 27.867C20.526 27.867 20.777 27.479 20.777 27.12C20.777 26.403 19.898 25.896 18.965 25.683V25.3C18.965 24.795 18.554 24.384 18.049 24.384C17.544 24.384 17.133 24.795 17.133 25.3V25.715C16.018 26.039 15.334 26.86 15.334 27.894C15.334 29.172 16.595 29.697 17.707 30.159C18.504 30.49 19.256 30.803 19.256 31.291C19.256 31.648 18.808 32.034 18.083 32.034C17.352 32.034 16.933 31.742 16.563 31.483C16.308 31.305 16.066 31.136 15.778 31.136C15.359 31.136 15.03 31.49 15.03 31.94C15.03 32.603 15.937 33.262 17.132 33.494V33.953C17.132 34.457 17.543 34.867 18.049 34.867C18.554 34.867 18.964 34.457 18.964 33.953L18.961 33.467C20.224 33.158 20.97 32.274 20.97 31.069V31.069Z" fill="white"/>
<path d="M9 22C9 22 12 23 18 23C24 23 27 22 27 22C27 22 25 26 18 26C11 26 9 22 9 22Z" fill="white"/>
<path d="M15.682 4.413L11.14 5.214L8.80002 0.960999C8.54202 0.491999 8.01202 0.240999 7.48802 0.332999C6.96102 0.425999 6.55102 0.843999 6.46902 1.372L5.72402 6.169L1.18202 6.97C0.647018 7.064 0.234018 7.495 0.161018 8.034C0.0880182 8.573 0.372018 9.097 0.864018 9.331L4.93402 11.263L4.18602 16.075C4.10302 16.611 4.37502 17.139 4.85902 17.384C5.03802 17.474 5.23002 17.517 5.42102 17.517C5.74802 17.517 6.07102 17.389 6.31202 17.145L9.82402 13.584L14.342 15.729C14.832 15.961 15.416 15.852 15.788 15.457C16.16 15.062 16.234 14.473 15.973 13.998L13.625 9.73L16.79 6.522C17.172 6.135 17.259 5.545 17.007 5.063C16.753 4.581 16.214 4.32 15.682 4.413V4.413ZM20.318 4.413L24.86 5.214L27.2 0.960999C27.458 0.491999 27.988 0.240999 28.512 0.332999C29.038 0.425999 29.448 0.843999 29.53 1.372L30.275 6.169L34.817 6.97C35.353 7.064 35.766 7.494 35.838 8.033C35.91 8.572 35.627 9.096 35.135 9.33L31.065 11.262L31.813 16.074C31.896 16.61 31.624 17.138 31.14 17.383C30.961 17.473 30.769 17.516 30.578 17.516C30.251 17.516 29.928 17.388 29.687 17.144L26.175 13.583L21.657 15.728C21.167 15.96 20.583 15.851 20.211 15.456C19.839 15.061 19.765 14.472 20.026 13.997L22.374 9.73L19.209 6.522C18.827 6.135 18.74 5.545 18.992 5.063C19.247 4.581 19.786 4.32 20.318 4.413V4.413Z" fill="#E95F28"/>
</svg>
