<svg width="36" height="36" viewBox="0 0 36 36" fill="none" xmlns="http://www.w3.org/2000/svg">
<path d="M36 18C36 27.941 27.941 36 18 36C8.06 36 0 27.941 0 18C0 8.06 8.06 0 18 0C27.941 0 36 8.06 36 18Z" fill="#FFCC4D"/>
<path d="M7 21.263C7 25.227 11.596 30.263 18 30.263C24.404 30.263 29 25.263 29 21.263C29 21.263 18.667 24.019 7 21.263Z" fill="#664500"/>
<path d="M12 23.003V29.964C12 32.964 14 35.964 18 35.964C22 35.964 24 32.964 24 29.964V23.044C17.709 24.336 12 23.003 12 23.003V23.003Z" fill="#5D9040"/>
<path d="M20.97 31.069C20.97 29.701 19.591 29.168 18.483 28.74C17.746 28.456 17.049 28.186 17.049 27.797C17.049 27.154 17.91 27.122 18.083 27.122C18.692 27.122 18.995 27.351 19.263 27.552C19.468 27.707 19.681 27.867 19.976 27.867C20.526 27.867 20.777 27.479 20.777 27.12C20.777 26.403 19.898 25.896 18.965 25.683V25.3C18.965 24.795 18.554 24.384 18.049 24.384C17.544 24.384 17.133 24.795 17.133 25.3V25.715C16.018 26.039 15.334 26.86 15.334 27.894C15.334 29.172 16.595 29.697 17.707 30.159C18.504 30.49 19.256 30.803 19.256 31.291C19.256 31.648 18.808 32.034 18.083 32.034C17.352 32.034 16.933 31.742 16.563 31.483C16.308 31.305 16.066 31.136 15.778 31.136C15.359 31.136 15.03 31.49 15.03 31.94C15.03 32.603 15.937 33.262 17.132 33.494V33.953C17.132 34.457 17.543 34.867 18.049 34.867C18.554 34.867 18.964 34.457 18.964 33.953L18.961 33.467C20.224 33.158 20.97 32.274 20.97 31.069V31.069Z" fill="white"/>
<path d="M28.457 17.797C28.397 17.662 26.958 14.5 24 14.5C21.043 14.5 19.603 17.662 19.543 17.797C19.451 18.004 19.511 18.246 19.688 18.388C19.863 18.53 20.114 18.535 20.298 18.402C20.31 18.393 21.56 17.5 24 17.5C26.426 17.5 27.674 18.381 27.702 18.401C27.79 18.467 27.896 18.5 28 18.5C28.11 18.5 28.221 18.463 28.312 18.391C28.489 18.249 28.55 18.005 28.457 17.797ZM17.457 17.797C17.397 17.662 15.958 14.5 13 14.5C10.043 14.5 8.603 17.662 8.543 17.797C8.451 18.004 8.511 18.246 8.687 18.388C8.863 18.53 9.114 18.535 9.297 18.402C9.31 18.393 10.559 17.5 13 17.5C15.426 17.5 16.674 18.381 16.702 18.401C16.791 18.467 16.896 18.5 17 18.5C17.11 18.5 17.221 18.463 17.312 18.391C17.49 18.249 17.549 18.005 17.457 17.797Z" fill="#664500"/>
<path d="M11 11C11 13.762 8.762 16 6 16C3.239 16 1 13.762 1 11C1 8.238 5 1 6 1C7 1 11 8.238 11 11Z" fill="#5DADEC"/>
</svg>
