<svg width="36" height="36" viewBox="0 0 36 36" fill="none" xmlns="http://www.w3.org/2000/svg">
<path d="M36 18C36 27.941 27.941 36 18 36C8.06 36 0 27.941 0 18C0 8.06 8.06 0 18 0C27.941 0 36 8.06 36 18Z" fill="#FFCC4D"/>
<path d="M7 21.263C7 25.227 11.596 30.263 18 30.263C24.404 30.263 29 25.263 29 21.263C29 21.263 18.667 24.019 7 21.263Z" fill="#664500"/>
<path d="M12 23.003V29.964C12 32.964 14 35.964 18 35.964C22 35.964 24 32.964 24 29.964V23.044C17.709 24.336 12 23.003 12 23.003V23.003Z" fill="#5D9040"/>
<path d="M20.97 31.069C20.97 29.701 19.591 29.168 18.483 28.74C17.746 28.456 17.049 28.186 17.049 27.797C17.049 27.154 17.91 27.122 18.083 27.122C18.692 27.122 18.995 27.351 19.263 27.552C19.468 27.707 19.681 27.867 19.976 27.867C20.526 27.867 20.777 27.479 20.777 27.12C20.777 26.403 19.898 25.896 18.965 25.683V25.3C18.965 24.795 18.554 24.384 18.049 24.384C17.544 24.384 17.133 24.795 17.133 25.3V25.715C16.018 26.039 15.334 26.86 15.334 27.894C15.334 29.172 16.595 29.697 17.707 30.159C18.504 30.49 19.256 30.803 19.256 31.291C19.256 31.648 18.808 32.034 18.083 32.034C17.352 32.034 16.933 31.742 16.563 31.483C16.308 31.305 16.066 31.136 15.778 31.136C15.359 31.136 15.03 31.49 15.03 31.94C15.03 32.603 15.937 33.262 17.132 33.494V33.953C17.132 34.457 17.543 34.867 18.049 34.867C18.554 34.867 18.964 34.457 18.964 33.953L18.961 33.467C20.224 33.158 20.97 32.274 20.97 31.069V31.069Z" fill="white"/>
<path d="M31 26C33.7614 26 36 23.7614 36 21C36 18.2386 33.7614 16 31 16C28.2386 16 26 18.2386 26 21C26 23.7614 28.2386 26 31 26Z" fill="#FF7892"/>
<path d="M5 26C7.76142 26 10 23.7614 10 21C10 18.2386 7.76142 16 5 16C2.23858 16 0 18.2386 0 21C0 23.7614 2.23858 26 5 26Z" fill="#FF7892"/>
<path d="M24.5 21C27.5376 21 30 18.5376 30 15.5C30 12.4624 27.5376 10 24.5 10C21.4624 10 19 12.4624 19 15.5C19 18.5376 21.4624 21 24.5 21Z" fill="#F5F8FA"/>
<path d="M11.5 21C14.5376 21 17 18.5376 17 15.5C17 12.4624 14.5376 10 11.5 10C8.46243 10 6 12.4624 6 15.5C6 18.5376 8.46243 21 11.5 21Z" fill="#F5F8FA"/>
<path d="M11.5 18C12.8807 18 14 16.8807 14 15.5C14 14.1193 12.8807 13 11.5 13C10.1193 13 9 14.1193 9 15.5C9 16.8807 10.1193 18 11.5 18Z" fill="#292F33"/>
<path d="M24.5 18C25.8807 18 27 16.8807 27 15.5C27 14.1193 25.8807 13 24.5 13C23.1193 13 22 14.1193 22 15.5C22 16.8807 23.1193 18 24.5 18Z" fill="#292F33"/>
<path d="M30.001 11C29.696 11 29.397 10.862 29.2 10.6C26.56 7.079 23.139 7.002 22.994 7C22.444 6.994 22 6.544 22.003 5.995C22.006 5.444 22.45 5 23 5C23.184 5 27.537 5.05 30.8 9.4C31.132 9.842 31.042 10.469 30.6 10.8C30.42 10.935 30.21 11 30.001 11ZM5.99901 11C5.79101 11 5.58001 10.935 5.40001 10.8C4.95801 10.469 4.86901 9.842 5.20001 9.4C8.46201 5.05 12.816 5 13 5C13.552 5 14 5.448 14 6C14 6.551 13.555 6.998 13.004 7C12.849 7.002 9.43601 7.086 6.80001 10.6C6.60401 10.862 6.30301 11 5.99901 11Z" fill="#664500"/>
</svg>
