<svg width="36" height="36" viewBox="0 0 36 36" fill="none" xmlns="http://www.w3.org/2000/svg">
<path d="M36 18C36 27.941 27.941 36 18 36C8.06 36 0 27.941 0 18C0 8.06 8.06 0 18 0C27.941 0 36 8.06 36 18Z" fill="#FFCC4D"/>
<path d="M7 21.263C7 25.227 11.596 30.263 18 30.263C24.404 30.263 29 25.263 29 21.263C29 21.263 18.667 24.019 7 21.263Z" fill="#664500"/>
<path d="M12 23.003V29.964C12 32.964 14 35.964 18 35.964C22 35.964 24 32.964 24 29.964V23.044C17.709 24.336 12 23.003 12 23.003V23.003Z" fill="#5D9040"/>
<path d="M20.97 31.069C20.97 29.701 19.591 29.168 18.483 28.74C17.746 28.456 17.049 28.186 17.049 27.797C17.049 27.154 17.91 27.122 18.083 27.122C18.692 27.122 18.995 27.351 19.263 27.552C19.468 27.707 19.681 27.867 19.976 27.867C20.526 27.867 20.777 27.479 20.777 27.12C20.777 26.403 19.898 25.896 18.965 25.683V25.3C18.965 24.795 18.554 24.384 18.049 24.384C17.544 24.384 17.133 24.795 17.133 25.3V25.715C16.018 26.039 15.334 26.86 15.334 27.894C15.334 29.172 16.595 29.697 17.707 30.159C18.504 30.49 19.256 30.803 19.256 31.291C19.256 31.648 18.808 32.034 18.083 32.034C17.352 32.034 16.933 31.742 16.563 31.483C16.308 31.305 16.066 31.136 15.778 31.136C15.359 31.136 15.03 31.49 15.03 31.94C15.03 32.603 15.937 33.262 17.132 33.494V33.953C17.132 34.457 17.543 34.867 18.049 34.867C18.554 34.867 18.964 34.457 18.964 33.953L18.961 33.467C20.224 33.158 20.97 32.274 20.97 31.069V31.069Z" fill="white"/>
<path d="M16.664 12.5438C16.457 12.4538 16.213 12.5138 16.072 12.6918C16.063 12.7038 15.093 13.8938 12.737 14.5358C11.962 14.7478 11.206 14.8548 10.492 14.8548C9.50002 14.8548 8.93302 14.6428 8.93002 14.6418C8.72002 14.5568 8.47702 14.6278 8.34302 14.8108C8.20802 14.9948 8.21502 15.2458 8.35902 15.4228C8.43002 15.5098 10.139 17.5698 12.484 17.5698C12.835 17.5698 13.186 17.5228 13.527 17.4298C16.381 16.6518 16.937 13.2218 16.959 13.0758C16.993 12.8528 16.872 12.6348 16.664 12.5438ZM27.639 14.6988C27.501 14.5178 27.259 14.4538 27.049 14.5398C27.043 14.5428 26.416 14.7958 25.312 14.7958C24.651 14.7958 23.954 14.7068 23.239 14.5308C20.87 13.9478 19.87 12.7818 19.862 12.7728C19.716 12.5968 19.474 12.5398 19.266 12.6358C19.059 12.7308 18.943 12.9538 18.983 13.1778C19.009 13.3228 19.651 16.7378 22.522 17.4448C22.833 17.5218 23.151 17.5608 23.468 17.5608C25.864 17.5608 27.567 15.4008 27.638 15.3088C27.776 15.1278 27.775 14.8788 27.639 14.6988ZM9.99802 12.0008C9.55002 12.0008 9.14302 11.6978 9.02902 11.2438C8.89602 10.7088 9.22002 10.1668 9.75302 10.0318C9.78902 10.0228 13.346 9.07084 15.105 5.55384C15.352 5.05984 15.951 4.85884 16.447 5.10684C16.941 5.35384 17.141 5.95484 16.894 6.44884C14.713 10.8098 10.423 11.9258 10.242 11.9718C10.161 11.9918 10.079 12.0008 9.99802 12.0008ZM26 12.0008C25.92 12.0008 25.839 11.9908 25.758 11.9708C25.576 11.9258 21.286 10.8088 19.106 6.44784C18.859 5.95384 19.059 5.35284 19.553 5.10584C20.046 4.85884 20.647 5.05884 20.895 5.55284C22.653 9.06984 26.21 10.0218 26.247 10.0308C26.78 10.1678 27.104 10.7118 26.969 11.2458C26.853 11.6988 26.447 12.0008 26 12.0008Z" fill="#664500"/>
</svg>
