<svg width="36" height="36" viewBox="0 0 36 36" fill="none" xmlns="http://www.w3.org/2000/svg">
<path d="M36 18C36 27.941 27.941 36 18 36C8.06 36 0 27.941 0 18C0 8.06 8.06 0 18 0C27.941 0 36 8.06 36 18Z" fill="#FFCC4D"/>
<path d="M7 21.263C7 25.227 11.596 30.263 18 30.263C24.404 30.263 29 25.263 29 21.263C29 21.263 18.667 24.019 7 21.263Z" fill="#664500"/>
<path d="M12 23.003V29.964C12 32.964 14 35.964 18 35.964C22 35.964 24 32.964 24 29.964V23.044C17.709 24.336 12 23.003 12 23.003V23.003Z" fill="#5D9040"/>
<path d="M20.97 31.069C20.97 29.701 19.591 29.168 18.483 28.74C17.746 28.456 17.049 28.186 17.049 27.797C17.049 27.154 17.91 27.122 18.083 27.122C18.692 27.122 18.995 27.351 19.263 27.552C19.468 27.707 19.681 27.867 19.976 27.867C20.526 27.867 20.777 27.479 20.777 27.12C20.777 26.403 19.898 25.896 18.965 25.683V25.3C18.965 24.795 18.554 24.384 18.049 24.384C17.544 24.384 17.133 24.795 17.133 25.3V25.715C16.018 26.039 15.334 26.86 15.334 27.894C15.334 29.172 16.595 29.697 17.707 30.159C18.504 30.49 19.256 30.803 19.256 31.291C19.256 31.648 18.808 32.034 18.083 32.034C17.352 32.034 16.933 31.742 16.563 31.483C16.308 31.305 16.066 31.136 15.778 31.136C15.359 31.136 15.03 31.49 15.03 31.94C15.03 32.603 15.937 33.262 17.132 33.494V33.953C17.132 34.457 17.543 34.867 18.049 34.867C18.554 34.867 18.964 34.457 18.964 33.953L18.961 33.467C20.224 33.158 20.97 32.274 20.97 31.069V31.069Z" fill="white"/>
<path d="M11.226 12C10.909 12 10.59 12.039 10.279 12.116C7.40902 12.823 6.76602 16.237 6.74002 16.383C6.70002 16.606 6.81602 16.826 7.02102 16.923C7.08802 16.954 7.16102 16.97 7.23202 16.97C7.37702 16.97 7.51902 16.907 7.61702 16.79C7.62702 16.778 8.62702 15.612 10.996 15.029C11.71 14.853 12.408 14.764 13.069 14.764C14.173 14.764 14.801 15.017 14.804 15.018C14.871 15.046 14.935 15.058 15.011 15.058C15.283 15.07 15.52 14.837 15.52 14.558C15.52 14.393 15.44 14.247 15.317 14.156C14.95 13.721 13.364 12 11.226 12ZM24.774 12C25.091 12 25.41 12.039 25.721 12.116C28.591 12.823 29.234 16.237 29.26 16.383C29.3 16.606 29.184 16.826 28.979 16.923C28.912 16.954 28.839 16.97 28.768 16.97C28.623 16.97 28.481 16.907 28.383 16.79C28.373 16.778 27.373 15.612 25.004 15.029C24.29 14.853 23.592 14.764 22.931 14.764C21.827 14.764 21.2 15.017 21.196 15.018C21.129 15.046 21.065 15.058 20.99 15.058C20.718 15.07 20.481 14.837 20.481 14.558C20.481 14.393 20.561 14.247 20.684 14.156C21.05 13.721 22.636 12 24.774 12Z" fill="#664500"/>
</svg>
