<svg width="36" height="36" viewBox="0 0 36 36" fill="none" xmlns="http://www.w3.org/2000/svg">
<path d="M36 18C36 27.941 27.941 36 18 36C8.06 36 0 27.941 0 18C0 8.06 8.06 0 18 0C27.941 0 36 8.06 36 18Z" fill="#FFCC4D"/>
<path d="M7 21.263C7 25.227 11.596 30.263 18 30.263C24.404 30.263 29 25.263 29 21.263C29 21.263 18.667 24.019 7 21.263Z" fill="#664500"/>
<path d="M12 23.003V29.964C12 32.964 14 35.964 18 35.964C22 35.964 24 32.964 24 29.964V23.044C17.709 24.336 12 23.003 12 23.003V23.003Z" fill="#5D9040"/>
<path d="M20.97 31.069C20.97 29.701 19.591 29.168 18.483 28.74C17.746 28.456 17.049 28.186 17.049 27.797C17.049 27.154 17.91 27.122 18.083 27.122C18.692 27.122 18.995 27.351 19.263 27.552C19.468 27.707 19.681 27.867 19.976 27.867C20.526 27.867 20.777 27.479 20.777 27.12C20.777 26.403 19.898 25.896 18.965 25.683V25.3C18.965 24.795 18.554 24.384 18.049 24.384C17.544 24.384 17.133 24.795 17.133 25.3V25.715C16.018 26.039 15.334 26.86 15.334 27.894C15.334 29.172 16.595 29.697 17.707 30.159C18.504 30.49 19.256 30.803 19.256 31.291C19.256 31.648 18.808 32.034 18.083 32.034C17.352 32.034 16.933 31.742 16.563 31.483C16.308 31.305 16.066 31.136 15.778 31.136C15.359 31.136 15.03 31.49 15.03 31.94C15.03 32.603 15.937 33.262 17.132 33.494V33.953C17.132 34.457 17.543 34.867 18.049 34.867C18.554 34.867 18.964 34.457 18.964 33.953L18.961 33.467C20.224 33.158 20.97 32.274 20.97 31.069V31.069Z" fill="white"/>
<path d="M5.99901 11C5.79101 11 5.58001 10.935 5.40001 10.8C4.95801 10.469 4.86901 9.842 5.20001 9.4C8.46201 5.05 12.816 5 13 5C13.552 5 14 5.448 14 6C14 6.551 13.555 6.998 13.004 7C12.849 7.002 9.43601 7.086 6.80001 10.6C6.60401 10.862 6.30301 11 5.99901 11ZM30.001 11C29.696 11 29.397 10.862 29.2 10.6C26.56 7.079 23.139 7.002 22.994 7C22.444 6.994 22 6.544 22.003 5.995C22.006 5.444 22.45 5 23 5C23.184 5 27.537 5.05 30.8 9.4C31.132 9.842 31.042 10.469 30.6 10.8C30.42 10.935 30.21 11 30.001 11V11ZM13.914 15.5L15.707 13.707C16.098 13.316 16.098 12.684 15.707 12.293C15.316 11.902 14.684 11.902 14.293 12.293L12.5 14.086L10.707 12.293C10.316 11.902 9.68401 11.902 9.29301 12.293C8.90201 12.684 8.90201 13.316 9.29301 13.707L11.086 15.5L9.29301 17.293C8.90201 17.684 8.90201 18.316 9.29301 18.707C9.48801 18.902 9.74401 19 10 19C10.256 19 10.512 18.902 10.707 18.707L12.5 16.914L14.293 18.707C14.488 18.902 14.744 19 15 19C15.256 19 15.512 18.902 15.707 18.707C16.098 18.316 16.098 17.684 15.707 17.293L13.914 15.5V15.5ZM24.914 15.5L26.707 13.707C27.098 13.316 27.098 12.684 26.707 12.293C26.316 11.902 25.684 11.902 25.293 12.293L23.5 14.086L21.707 12.293C21.316 11.902 20.684 11.902 20.293 12.293C19.902 12.684 19.902 13.316 20.293 13.707L22.086 15.5L20.293 17.293C19.902 17.684 19.902 18.316 20.293 18.707C20.488 18.902 20.744 19 21 19C21.256 19 21.512 18.902 21.707 18.707L23.5 16.914L25.293 18.707C25.488 18.902 25.744 19 26 19C26.256 19 26.512 18.902 26.707 18.707C27.098 18.316 27.098 17.684 26.707 17.293L24.914 15.5V15.5Z" fill="#664500"/>
</svg>
