<svg width="36" height="36" viewBox="0 0 36 36" fill="none" xmlns="http://www.w3.org/2000/svg">
<path d="M36 18C36 27.941 27.941 36 18 36C8.06 36 0 27.941 0 18C0 8.06 8.06 0 18 0C27.941 0 36 8.06 36 18Z" fill="#FFCC4D"/>
<path d="M7 21.263C7 25.227 11.596 30.263 18 30.263C24.404 30.263 29 25.263 29 21.263C29 21.263 18.667 24.019 7 21.263Z" fill="#664500"/>
<path d="M12 23.003V29.964C12 32.964 14 35.964 18 35.964C22 35.964 24 32.964 24 29.964V23.044C17.709 24.336 12 23.003 12 23.003V23.003Z" fill="#5D9040"/>
<path d="M20.97 31.069C20.97 29.701 19.591 29.168 18.483 28.74C17.746 28.456 17.049 28.186 17.049 27.797C17.049 27.154 17.91 27.122 18.083 27.122C18.692 27.122 18.995 27.351 19.263 27.552C19.468 27.707 19.681 27.867 19.976 27.867C20.526 27.867 20.777 27.479 20.777 27.12C20.777 26.403 19.898 25.896 18.965 25.683V25.3C18.965 24.795 18.554 24.384 18.049 24.384C17.544 24.384 17.133 24.795 17.133 25.3V25.715C16.018 26.039 15.334 26.86 15.334 27.894C15.334 29.172 16.595 29.697 17.707 30.159C18.504 30.49 19.256 30.803 19.256 31.291C19.256 31.648 18.808 32.034 18.083 32.034C17.352 32.034 16.933 31.742 16.563 31.483C16.308 31.305 16.066 31.136 15.778 31.136C15.359 31.136 15.03 31.49 15.03 31.94C15.03 32.603 15.937 33.262 17.132 33.494V33.953C17.132 34.457 17.543 34.867 18.049 34.867C18.554 34.867 18.964 34.457 18.964 33.953L18.961 33.467C20.224 33.158 20.97 32.274 20.97 31.069V31.069Z" fill="white"/>
<path d="M11.395 18.875C9.31997 18.875 7.63297 17.187 7.63297 15.113C7.63297 13.038 9.32097 11.35 11.395 11.35C12.674 11.35 13.714 12.39 13.714 13.669C13.714 14.948 12.674 15.988 11.395 15.988C10.912 15.988 10.52 15.596 10.52 15.113C10.52 14.63 10.912 14.238 11.395 14.238C11.708 14.238 11.964 13.983 11.964 13.669C11.964 13.355 11.709 13.1 11.395 13.1C10.286 13.1 9.38297 14.003 9.38297 15.113C9.38297 16.222 10.286 17.125 11.395 17.125C13.301 17.125 14.851 15.575 14.851 13.669C14.851 11.763 13.301 10.213 11.395 10.213C8.69297 10.213 6.49597 12.411 6.49597 15.113C6.49597 15.596 6.10397 15.988 5.62097 15.988C5.13797 15.988 4.74597 15.596 4.74597 15.113C4.74597 11.446 7.72897 8.46301 11.395 8.46301C14.266 8.46301 16.601 10.798 16.601 13.669C16.601 16.54 14.267 18.875 11.395 18.875ZM24.604 18.875C21.733 18.875 19.398 16.54 19.398 13.669C19.398 10.798 21.733 8.46301 24.604 8.46301C26.679 8.46301 28.367 10.151 28.367 12.225C28.367 14.299 26.679 15.988 24.604 15.988C23.326 15.988 22.286 14.948 22.286 13.669C22.286 12.39 23.326 11.35 24.604 11.35C25.087 11.35 25.479 11.742 25.479 12.225C25.479 12.708 25.088 13.1 24.604 13.1C24.291 13.1 24.036 13.355 24.036 13.669C24.036 13.983 24.291 14.238 24.604 14.238C25.713 14.238 26.617 13.335 26.617 12.225C26.617 11.116 25.714 10.213 24.604 10.213C22.699 10.213 21.148 11.763 21.148 13.669C21.148 15.574 22.699 17.125 24.604 17.125C27.305 17.125 29.503 14.927 29.503 12.226C29.503 11.743 29.895 11.351 30.378 11.351C30.861 11.351 31.253 11.743 31.253 12.226C31.254 15.892 28.27 18.875 24.604 18.875Z" fill="#664500"/>
</svg>
