<svg width="36" height="36" viewBox="0 0 36 36" fill="none" xmlns="http://www.w3.org/2000/svg">
<path d="M18 36C27.9411 36 36 27.9411 36 18C36 8.05887 27.9411 0 18 0C8.05887 0 0 8.05887 0 18C0 27.9411 8.05887 36 18 36Z" fill="#50A5E6"/>
<path d="M7 21.263C7 25.227 11.596 30.263 18 30.263C24.404 30.263 29 25.263 29 21.263C29 21.263 18.667 24.019 7 21.263Z" fill="#1C6399"/>
<path d="M12 23.003V29.964C12 32.964 14 35.964 18 35.964C22 35.964 24 32.964 24 29.964V23.044C17.709 24.336 12 23.003 12 23.003V23.003Z" fill="#40906E"/>
<path d="M20.97 31.069C20.97 29.701 19.591 29.168 18.483 28.74C17.746 28.456 17.049 28.186 17.049 27.797C17.049 27.154 17.91 27.122 18.083 27.122C18.692 27.122 18.995 27.351 19.263 27.552C19.468 27.707 19.681 27.867 19.976 27.867C20.526 27.867 20.777 27.479 20.777 27.12C20.777 26.403 19.898 25.896 18.965 25.683V25.3C18.965 24.795 18.554 24.384 18.049 24.384C17.544 24.384 17.133 24.795 17.133 25.3V25.715C16.018 26.039 15.334 26.86 15.334 27.894C15.334 29.172 16.595 29.697 17.707 30.159C18.504 30.49 19.256 30.803 19.256 31.291C19.256 31.648 18.808 32.034 18.083 32.034C17.352 32.034 16.933 31.742 16.563 31.483C16.308 31.305 16.066 31.136 15.778 31.136C15.359 31.136 15.03 31.49 15.03 31.94C15.03 32.603 15.937 33.262 17.132 33.494V33.953C17.132 34.457 17.543 34.867 18.049 34.867C18.554 34.867 18.964 34.457 18.964 33.953L18.961 33.467C20.224 33.158 20.97 32.274 20.97 31.069V31.069Z" fill="#BBDDF5"/>
<path d="M11.985 18.688C13.3657 18.688 14.485 17.121 14.485 15.188C14.485 13.255 13.3657 11.688 11.985 11.688C10.6043 11.688 9.48499 13.255 9.48499 15.188C9.48499 17.121 10.6043 18.688 11.985 18.688Z" fill="#1C6399"/>
<path d="M23.985 18.688C25.3657 18.688 26.485 17.121 26.485 15.188C26.485 13.255 25.3657 11.688 23.985 11.688C22.6043 11.688 21.485 13.255 21.485 15.188C21.485 17.121 22.6043 18.688 23.985 18.688Z" fill="#1C6399"/>
<path d="M35.756 15.188C35.756 14.743 35.71 17.428 32.004 18.582C30.543 19.037 30.716 21.162 30.739 21.734C30.819 23.709 31.137 25.626 31.236 26.126C31.336 26.633 31.743 28.232 31.838 28.715C31.943 29.247 32.079 31.121 32.171 31.588C32.282 32.151 32.386 32.556 32.471 32.986C32.655 33.915 32.895 34.584 33.303 34.584C33.712 34.584 33.719 33.459 33.902 32.531C33.987 32.102 34.009 31.744 34.12 31.182C34.212 30.718 34.483 27.541 34.585 27.026C34.682 26.535 35.221 24.458 35.319 23.959C35.419 23.452 35.718 21.465 35.798 20.98C36.276 18.083 35.756 15.189 35.756 15.188V15.188ZM0.312988 21.375C0.312988 21.085 0.925988 22.539 1.46099 22.863C2.15099 23.281 2.69099 24.063 3.50099 24.75C4.31099 25.437 4.30899 26.724 4.27699 27.344C4.14099 30 3.79099 32.643 3.71499 32.969C3.63899 33.3 3.35699 35.792 2.98499 35.792C2.61299 35.792 2.43199 34.914 2.29199 34.308L2.06699 33.331C1.99699 33.029 1.94699 32.7 1.86699 32.355C1.79499 32.041 1.44599 29.768 1.37099 29.442C1.29499 29.111 0.964988 27.799 0.891988 27.484C0.811988 27.137 0.777988 26.8 0.701988 26.497C0.374988 25.197 0.312988 21.376 0.312988 21.375V21.375Z" fill="#BBDDF5"/>
<path d="M5.98602 11.375C5.43402 11.375 4.98602 10.927 4.98602 10.375C4.98602 9.82399 5.43102 9.37699 5.98202 9.37499C6.13802 9.37299 9.55102 9.28899 12.187 5.77499C12.518 5.33499 13.144 5.24299 13.587 5.57498C14.029 5.90598 14.118 6.53299 13.787 6.97499C10.524 11.325 6.17002 11.375 5.98602 11.375V11.375ZM29.986 11.375C29.802 11.375 25.449 11.325 22.186 6.97499C21.854 6.53299 21.944 5.90598 22.386 5.57498C22.827 5.24198 23.453 5.33299 23.785 5.77499C26.426 9.29599 29.847 9.37399 29.991 9.37499C30.541 9.38099 30.985 9.83099 30.982 10.38C30.98 10.931 30.536 11.375 29.986 11.375V11.375Z" fill="#1C6399"/>
<path d="M24.266 1.125C24.266 1.125 23.275 0.703999 22.949 0.603999C22.662 0.515999 21.756 0.327999 21.196 0.219999C20.571 0.0989988 19.902 0.104999 19.902 0.104999C19.902 0.104999 19.872 0.506999 20.016 1.13C20.132 1.632 20.42 2.328 20.474 2.689C20.533 3.08 20.542 3.544 20.615 4.037C20.679 4.463 20.743 4.917 20.812 5.379C20.879 5.825 20.994 6.273 21.061 6.72C21.131 7.184 21.163 7.645 21.228 8.073C21.302 8.569 21.218 9.051 21.277 9.444C21.398 10.25 21.61 11.376 21.839 11.376C22.068 11.376 22.27 10.357 22.391 9.548C22.45 9.157 22.364 8.853 22.438 8.36C22.502 7.934 22.556 7.51 22.626 7.048C22.693 6.602 22.747 6.166 22.814 5.72C22.884 5.256 22.875 4.804 22.939 4.376C23.013 3.88 23.302 3.269 23.361 2.876C23.48 2.07 24.266 1.125 24.266 1.125V1.125ZM5.875 9.379C5.875 9.379 6.606 9.215 7.302 9.07C7.755 8.976 8.114 8.611 8.855 8.341C9.626 8.06 10.122 7.817 10.122 7.817C10.122 7.817 10.185 9.122 10.013 9.773C9.874 10.298 9.801 10.976 9.737 11.353C9.667 11.761 9.628 12.242 9.54 12.757C9.464 13.202 9.324 13.667 9.241 14.151C9.161 14.618 9.097 15.165 9.017 15.632C8.934 16.117 8.912 16.534 8.835 16.981C8.746 17.499 8.813 17.551 8.742 17.961C8.597 18.804 8.577 18.688 8.53 19.147C8.483 19.606 8.136 19.663 7.986 19.327C7.836 18.991 7.995 18.806 7.85 17.96C7.78 17.552 7.523 16.473 7.44 15.99C7.36 15.523 7.252 14.791 7.172 14.324C7.089 13.839 7.068 13.057 6.991 12.609C6.902 12.091 6.766 11.771 6.696 11.361C6.551 10.52 5.875 9.379 5.875 9.379V9.379Z" fill="#BBDDF5"/>
</svg>
