<svg width="36" height="36" viewBox="0 0 36 36" fill="none" xmlns="http://www.w3.org/2000/svg">
<path d="M36 18C36 27.941 27.941 36 18 36C8.06 36 0 27.941 0 18C0 8.06 8.06 0 18 0C27.941 0 36 8.06 36 18Z" fill="#FFCC4D"/>
<path d="M7 21.263C7 25.227 11.596 30.263 18 30.263C24.404 30.263 29 25.263 29 21.263C29 21.263 18.667 24.019 7 21.263Z" fill="#664500"/>
<path d="M12 23.003V29.964C12 32.964 14 35.964 18 35.964C22 35.964 24 32.964 24 29.964V23.044C17.709 24.336 12 23.003 12 23.003V23.003Z" fill="#5D9040"/>
<path d="M20.97 31.069C20.97 29.701 19.591 29.168 18.483 28.74C17.746 28.456 17.049 28.186 17.049 27.797C17.049 27.154 17.91 27.122 18.083 27.122C18.692 27.122 18.995 27.351 19.263 27.552C19.468 27.707 19.681 27.867 19.976 27.867C20.526 27.867 20.777 27.479 20.777 27.12C20.777 26.403 19.898 25.896 18.965 25.683V25.3C18.965 24.795 18.554 24.384 18.049 24.384C17.544 24.384 17.133 24.795 17.133 25.3V25.715C16.018 26.039 15.334 26.86 15.334 27.894C15.334 29.172 16.595 29.697 17.707 30.159C18.504 30.49 19.256 30.803 19.256 31.291C19.256 31.648 18.808 32.034 18.083 32.034C17.352 32.034 16.933 31.742 16.563 31.483C16.308 31.305 16.066 31.136 15.778 31.136C15.359 31.136 15.03 31.49 15.03 31.94C15.03 32.603 15.937 33.262 17.132 33.494V33.953C17.132 34.457 17.543 34.867 18.049 34.867C18.554 34.867 18.964 34.457 18.964 33.953L18.961 33.467C20.224 33.158 20.97 32.274 20.97 31.069V31.069Z" fill="white"/>
<path d="M28.957 17.797C28.897 17.662 27.458 14.5 24.5 14.5C21.543 14.5 20.103 17.662 20.043 17.797C19.951 18.004 20.011 18.246 20.188 18.389C20.363 18.531 20.614 18.535 20.798 18.403C20.81 18.393 22.06 17.5 24.5 17.5C26.926 17.5 28.174 18.381 28.202 18.401C28.29 18.467 28.396 18.5 28.5 18.5C28.61 18.5 28.721 18.463 28.812 18.391C28.989 18.249 29.05 18.005 28.957 17.797ZM15.957 17.797C15.897 17.662 14.458 14.5 11.5 14.5C8.543 14.5 7.103 17.662 7.043 17.797C6.951 18.004 7.011 18.246 7.187 18.389C7.363 18.531 7.614 18.535 7.797 18.403C7.81 18.393 9.059 17.5 11.5 17.5C13.926 17.5 15.174 18.381 15.202 18.401C15.29 18.467 15.396 18.5 15.5 18.5C15.61 18.5 15.721 18.463 15.811 18.391C15.99 18.249 16.049 18.005 15.957 17.797Z" fill="#664500"/>
<path d="M34.979 12.068C34.843 11.679 34.708 11.289 34.547 10.913C34.19 10.082 33.76 9.29199 33.288 8.53099C33.026 8.10899 32.748 7.70099 32.453 7.30299C32.051 6.76099 31.622 6.24299 31.163 5.74999C30.87 5.43499 30.567 5.13199 30.252 4.83899L30.129 4.72699C29.482 4.13499 28.805 3.57599 28.076 3.08199C27.637 2.78499 27.181 2.51199 26.715 2.25399C25.59 1.62999 24.392 1.12599 23.136 0.752991L15.715 2.10399L11.305 1.30099C10.225 1.73499 9.19802 2.26899 8.23302 2.89399C7.86002 3.13599 7.50202 3.39499 7.15002 3.66299L7.03002 3.75199C6.32002 4.29999 5.64902 4.89399 5.02902 5.53999C4.78202 5.79699 4.54102 6.05999 4.30902 6.33199C4.27002 6.37699 4.22702 6.41799 4.18902 6.46399C3.88802 6.82399 3.60902 7.20199 3.33702 7.58499C3.15502 7.83999 2.98202 8.10099 2.81302 8.36599C2.47802 8.89299 2.17302 9.43799 1.89302 9.99999C1.70102 10.386 1.51202 10.774 1.34802 11.176L9.80002 9.63799L35.625 14.338C35.464 13.559 35.237 12.806 34.979 12.068V12.068Z" fill="#E6E7E8"/>
<path d="M34.546 10.912L18.671 8.02299L24.585 6.94699L27.541 6.40899L31.162 5.74999C30.869 5.43499 30.566 5.13199 30.251 4.83899L24.583 5.87099L21.627 6.40899L15.713 7.48499L12.756 8.02299L6.84302 9.09899L1.89302 9.99999C1.70102 10.386 1.51202 10.774 1.34802 11.176L9.80002 9.63799L15.714 8.56199L34.979 12.068C34.843 11.678 34.708 11.289 34.546 10.912V10.912Z" fill="#BCBEC0"/>
<path d="M27.541 6.409L32.453 7.303C32.748 7.7 33.026 8.109 33.288 8.531L24.586 6.947L27.541 6.409V6.409ZM8.23198 2.895C7.85998 3.136 7.50198 3.395 7.14998 3.663L9.79998 3.18L8.23198 2.895V2.895ZM26.715 2.254L21.628 3.18L15.714 4.256L12.758 4.794L6.84398 5.871L4.30898 6.332C4.26998 6.377 4.22698 6.418 4.18898 6.464C3.88798 6.824 3.60898 7.202 3.33698 7.585L6.84198 6.947L9.79998 6.409L15.714 5.333L18.67 4.795L24.584 3.719L28.076 3.084C27.636 2.786 27.18 2.513 26.715 2.254V2.254Z" fill="#D1D3D4"/>
</svg>
