<svg width="36" height="36" viewBox="0 0 36 36" fill="none" xmlns="http://www.w3.org/2000/svg">
<path d="M36 18C36 27.941 27.941 36 18 36C8.06 36 0 27.941 0 18C0 8.06 8.06 0 18 0C27.941 0 36 8.06 36 18Z" fill="#FFCC4D"/>
<path d="M7 21.263C7 25.227 11.596 30.263 18 30.263C24.404 30.263 29 25.263 29 21.263C29 21.263 18.667 24.019 7 21.263Z" fill="#664500"/>
<path d="M12 23.003V29.964C12 32.964 14 35.964 18 35.964C22 35.964 24 32.964 24 29.964V23.044C17.709 24.336 12 23.003 12 23.003V23.003Z" fill="#5D9040"/>
<path d="M20.97 31.069C20.97 29.701 19.591 29.168 18.483 28.74C17.746 28.456 17.049 28.186 17.049 27.797C17.049 27.154 17.91 27.122 18.083 27.122C18.692 27.122 18.995 27.351 19.263 27.552C19.468 27.707 19.681 27.867 19.976 27.867C20.526 27.867 20.777 27.479 20.777 27.12C20.777 26.403 19.898 25.896 18.965 25.683V25.3C18.965 24.795 18.554 24.384 18.049 24.384C17.544 24.384 17.133 24.795 17.133 25.3V25.715C16.018 26.039 15.334 26.86 15.334 27.894C15.334 29.172 16.595 29.697 17.707 30.159C18.504 30.49 19.256 30.803 19.256 31.291C19.256 31.648 18.808 32.034 18.083 32.034C17.352 32.034 16.933 31.742 16.563 31.483C16.308 31.305 16.066 31.136 15.778 31.136C15.359 31.136 15.03 31.49 15.03 31.94C15.03 32.603 15.937 33.262 17.132 33.494V33.953C17.132 34.457 17.543 34.867 18.049 34.867C18.554 34.867 18.964 34.457 18.964 33.953L18.961 33.467C20.224 33.158 20.97 32.274 20.97 31.069V31.069Z" fill="white"/>
<path d="M6.00101 20C5.69701 20 5.39701 19.862 5.20001 19.6C4.86801 19.159 4.95801 18.532 5.40001 18.201C5.54301 18.094 8.35101 16.018 12.256 15.268C9.78101 14.027 7.03401 14 6.99901 14C6.44701 13.999 6.00001 13.55 6.00101 12.998C6.00101 12.447 6.44801 12 7.00001 12C7.22101 12 12.452 12.038 15.707 15.293C15.993 15.579 16.079 16.009 15.924 16.383C15.769 16.757 15.404 17 15 17C10.387 17 6.63701 19.772 6.60001 19.8C6.42001 19.935 6.20901 20 6.00101 20ZM29.999 19.999C29.791 19.999 29.581 19.935 29.401 19.801C29.363 19.772 25.59 17 21 17C20.596 17 20.23 16.757 20.076 16.383C19.921 16.009 20.007 15.579 20.293 15.293C23.549 12.038 28.779 12 29 12C29.552 12 29.998 12.447 29.999 12.998C30 13.55 29.553 13.998 29.002 14C28.966 14 26.219 14.027 23.744 15.268C27.649 16.018 30.457 18.093 30.599 18.201C31.04 18.532 31.13 19.157 30.8 19.599C30.604 19.86 30.304 19.999 29.999 19.999Z" fill="#664500"/>
</svg>
