<svg width="36" height="36" viewBox="0 0 36 36" fill="none" xmlns="http://www.w3.org/2000/svg">
<path d="M36 18C36 27.941 27.941 36 18 36C8.06 36 0 27.941 0 18C0 8.06 8.06 0 18 0C27.941 0 36 8.06 36 18Z" fill="#FFCC4D"/>
<path d="M7 21.263C7 25.227 11.596 30.263 18 30.263C24.404 30.263 29 25.263 29 21.263C29 21.263 18.667 24.019 7 21.263Z" fill="#664500"/>
<path d="M12 23.003V29.964C12 32.964 14 35.964 18 35.964C22 35.964 24 32.964 24 29.964V23.044C17.709 24.336 12 23.003 12 23.003V23.003Z" fill="#5D9040"/>
<path d="M20.97 31.069C20.97 29.701 19.591 29.168 18.483 28.74C17.746 28.456 17.049 28.186 17.049 27.797C17.049 27.154 17.91 27.122 18.083 27.122C18.692 27.122 18.995 27.351 19.263 27.552C19.468 27.707 19.681 27.867 19.976 27.867C20.526 27.867 20.777 27.479 20.777 27.12C20.777 26.403 19.898 25.896 18.965 25.683V25.3C18.965 24.795 18.554 24.384 18.049 24.384C17.544 24.384 17.133 24.795 17.133 25.3V25.715C16.018 26.039 15.334 26.86 15.334 27.894C15.334 29.172 16.595 29.697 17.707 30.159C18.504 30.49 19.256 30.803 19.256 31.291C19.256 31.648 18.808 32.034 18.083 32.034C17.352 32.034 16.933 31.742 16.563 31.483C16.308 31.305 16.066 31.136 15.778 31.136C15.359 31.136 15.03 31.49 15.03 31.94C15.03 32.603 15.937 33.262 17.132 33.494V33.953C17.132 34.457 17.543 34.867 18.049 34.867C18.554 34.867 18.964 34.457 18.964 33.953L18.961 33.467C20.224 33.158 20.97 32.274 20.97 31.069V31.069Z" fill="white"/>
<path d="M31.001 15C30.696 15 30.397 14.862 30.2 14.6C27.559 11.079 24.139 11.001 23.994 11C23.444 10.994 23 10.544 23.003 9.995C23.006 9.444 23.45 9 24 9C24.184 9 28.537 9.05 31.8 13.4C32.132 13.842 32.042 14.469 31.6 14.8C31.42 14.935 31.21 15 31.001 15ZM4.99901 15C4.79101 15 4.58001 14.935 4.40001 14.8C3.95801 14.469 3.86901 13.842 4.20001 13.4C7.46201 9.05 11.816 9 12 9C12.552 9 13 9.448 13 10C13 10.551 12.555 10.998 12.004 11C11.848 11.002 8.43501 11.086 5.79901 14.6C5.60401 14.862 5.30301 15 4.99901 15ZM15.897 16.396C15.92 16.344 15.956 16.3 15.97 16.242C16.104 15.706 15.778 15.163 15.243 15.029C15.063 14.984 10.776 13.949 7.44601 16.167C6.98701 16.473 6.86301 17.094 7.16901 17.554C7.36101 17.844 7.67801 18 8.00101 18C8.19101 18 8.38401 17.945 8.55501 17.832C9.64701 17.103 10.917 16.837 12.023 16.771C12.014 16.847 12 16.922 12 17C12 18.104 12.896 19 14 19C15.104 19 16 18.104 16 17C16 16.788 15.958 16.588 15.897 16.396ZM27.896 16.395C27.919 16.343 27.955 16.3 27.969 16.243C28.104 15.707 27.778 15.164 27.242 15.03C27.062 14.985 22.776 13.95 19.445 16.168C18.985 16.474 18.861 17.095 19.168 17.555C19.36 17.844 19.678 18 20.001 18C20.191 18 20.384 17.945 20.555 17.832C21.647 17.103 22.916 16.838 24.024 16.772C24.015 16.848 24 16.922 24 17C24 18.104 24.896 19 26 19C27.104 19 28 18.104 28 17C28 16.788 27.958 16.587 27.896 16.395Z" fill="#664500"/>
</svg>
