<svg width="36" height="36" viewBox="0 0 36 36" fill="none" xmlns="http://www.w3.org/2000/svg">
<path d="M36 18C36 27.941 27.941 36 18 36C8.06 36 0 27.941 0 18C0 8.06 8.06 0 18 0C27.941 0 36 8.06 36 18Z" fill="#FFCC4D"/>
<path d="M7 21.263C7 25.227 11.596 30.263 18 30.263C24.404 30.263 29 25.263 29 21.263C29 21.263 18.667 24.019 7 21.263Z" fill="#664500"/>
<path d="M12 23.003V29.964C12 32.964 14 35.964 18 35.964C22 35.964 24 32.964 24 29.964V23.044C17.709 24.336 12 23.003 12 23.003V23.003Z" fill="#5D9040"/>
<path d="M20.97 31.069C20.97 29.701 19.591 29.168 18.483 28.74C17.746 28.456 17.049 28.186 17.049 27.797C17.049 27.154 17.91 27.122 18.083 27.122C18.692 27.122 18.995 27.351 19.263 27.552C19.468 27.707 19.681 27.867 19.976 27.867C20.526 27.867 20.777 27.479 20.777 27.12C20.777 26.403 19.898 25.896 18.965 25.683V25.3C18.965 24.795 18.554 24.384 18.049 24.384C17.544 24.384 17.133 24.795 17.133 25.3V25.715C16.018 26.039 15.334 26.86 15.334 27.894C15.334 29.172 16.595 29.697 17.707 30.159C18.504 30.49 19.256 30.803 19.256 31.291C19.256 31.648 18.808 32.034 18.083 32.034C17.352 32.034 16.933 31.742 16.563 31.483C16.308 31.305 16.066 31.136 15.778 31.136C15.359 31.136 15.03 31.49 15.03 31.94C15.03 32.603 15.937 33.262 17.132 33.494V33.953C17.132 34.457 17.543 34.867 18.049 34.867C18.554 34.867 18.964 34.457 18.964 33.953L18.961 33.467C20.224 33.158 20.97 32.274 20.97 31.069V31.069Z" fill="white"/>
<path d="M17.312 16.1122C17.136 15.9692 16.885 15.9652 16.702 16.0982C16.69 16.1072 15.442 17.0002 13 17.0002C10.559 17.0002 9.31 16.1072 9.3 16.1002C9.117 15.9632 8.865 15.9672 8.689 16.1092C8.511 16.2512 8.451 16.4952 8.543 16.7032C8.603 16.8382 10.043 20.0002 13 20.0002C15.958 20.0002 17.397 16.8382 17.457 16.7032C17.549 16.4962 17.489 16.2542 17.312 16.1122V16.1122ZM27.312 16.1122C27.136 15.9692 26.886 15.9642 26.702 16.0982C26.69 16.1072 25.441 17.0002 23 17.0002C20.56 17.0002 19.31 16.1072 19.3 16.1002C19.117 15.9632 18.866 15.9672 18.689 16.1092C18.511 16.2512 18.451 16.4952 18.543 16.7032C18.603 16.8382 20.043 20.0002 23 20.0002C25.958 20.0002 27.397 16.8382 27.457 16.7032C27.549 16.4962 27.489 16.2542 27.312 16.1122V16.1122Z" fill="#664500"/>
<path d="M34.43 12.534C34.434 12.49 34.453 12.457 34.453 12.411C34.453 11.657 33.905 11.223 33.228 11.223H29.646L33.925 5.22999C34.131 4.94699 34.207 4.77699 34.207 4.41899C34.207 3.68399 33.567 3.56999 33.322 3.56999H27.973L27.941 2.88199C27.941 2.88199 26.532 3.71299 26.438 3.76999C26.344 3.82699 25.933 4.14199 25.933 4.75699C25.933 5.51099 26.479 5.94399 27.158 5.94399H30.307L26.046 11.937C25.952 12.088 25.802 12.37 25.802 12.672C25.802 13.294 26.31 13.596 26.913 13.596H33.228C33.486 13.596 33.743 13.52 33.909 13.42L35.412 12.532H34.43V12.534Z" fill="#FFAC33"/>
<path d="M31.771 5.08401H28.622C27.943 5.08401 27.397 4.65101 27.397 3.89701C27.397 3.14301 27.943 2.70901 28.622 2.70901H34.786C35.031 2.70901 35.671 2.82201 35.671 3.55701C35.671 3.91501 35.595 4.08501 35.389 4.36801L31.11 10.361H34.692C35.369 10.361 35.917 10.794 35.917 11.548C35.917 12.302 35.369 12.735 34.692 12.735H28.377C27.774 12.735 27.266 12.433 27.266 11.811C27.266 11.509 27.416 11.227 27.51 11.076L31.771 5.08401V5.08401Z" fill="#2A6797"/>
<path d="M24.886 7.48001C24.889 7.44701 24.904 7.42201 24.904 7.38801C24.904 6.82401 24.494 6.49901 23.987 6.49901H21.305L24.508 2.01201C24.664 1.80001 24.72 1.67301 24.72 1.40601C24.72 0.856012 24.241 0.771012 24.057 0.771012H20.053L20.029 0.256012C20.029 0.256012 18.974 0.878012 18.904 0.921012C18.834 0.964012 18.526 1.20001 18.526 1.66001C18.526 2.22401 18.935 2.54901 19.443 2.54901H21.8L18.61 7.03601C18.54 7.14901 18.427 7.36001 18.427 7.58601C18.427 8.05201 18.807 8.27701 19.259 8.27701H23.987C24.18 8.27701 24.372 8.22001 24.497 8.14501L25.622 7.48001H24.886V7.48001Z" fill="#FFAC33"/>
<path d="M22.896 1.903H20.539C20.031 1.903 19.622 1.579 19.622 1.014C19.622 0.45 20.031 0.125 20.539 0.125H25.154C25.338 0.125 25.817 0.21 25.817 0.76C25.817 1.028 25.76 1.155 25.606 1.367L22.403 5.854H25.085C25.59 5.854 26 6.178 26 6.743C26 7.308 25.59 7.632 25.083 7.632H20.355C19.903 7.632 19.523 7.406 19.523 6.941C19.523 6.715 19.636 6.504 19.706 6.391L22.896 1.903V1.903Z" fill="#2A6797"/>
<path d="M17.741 10.425C17.744 10.397 17.756 10.376 17.756 10.346C17.756 9.863 17.405 9.585 16.971 9.585H14.676L17.418 5.745C17.55 5.564 17.599 5.455 17.599 5.226C17.599 4.755 17.189 4.682 17.032 4.682H13.605L13.584 4.241L12.621 4.81C12.561 4.847 12.297 5.048 12.297 5.443C12.297 5.926 12.647 6.204 13.082 6.204H15.099L12.369 10.044C12.309 10.141 12.212 10.322 12.212 10.515C12.212 10.914 12.538 11.107 12.924 11.107H16.971C17.136 11.107 17.301 11.058 17.407 10.994L18.37 10.425H17.741Z" fill="#FFAC33"/>
<path d="M16.037 5.652H14.02C13.585 5.652 13.235 5.374 13.235 4.891C13.235 4.408 13.585 4.13 14.02 4.13H17.97C18.127 4.13 18.537 4.203 18.537 4.674C18.537 4.903 18.489 5.012 18.356 5.193L15.614 9.033H17.909C18.343 9.033 18.694 9.311 18.694 9.794C18.694 10.277 18.343 10.555 17.909 10.555H13.862C13.476 10.555 13.15 10.362 13.15 9.96301C13.15 9.77001 13.246 9.589 13.307 9.492L16.037 5.652V5.652Z" fill="#2A6797"/>
</svg>
