<svg width="36" height="36" viewBox="0 0 36 36" fill="none" xmlns="http://www.w3.org/2000/svg">
<path d="M36 18C36 27.941 27.941 36 18 36C8.06 36 0 27.941 0 18C0 8.06 8.06 0 18 0C27.941 0 36 8.06 36 18Z" fill="#FFCC4D"/>
<path d="M7 21.263C7 25.227 11.596 30.263 18 30.263C24.404 30.263 29 25.263 29 21.263C29 21.263 18.667 24.019 7 21.263Z" fill="#664500"/>
<path d="M12 23.003V29.964C12 32.964 14 35.964 18 35.964C22 35.964 24 32.964 24 29.964V23.044C17.709 24.336 12 23.003 12 23.003V23.003Z" fill="#5D9040"/>
<path d="M20.97 31.069C20.97 29.701 19.591 29.168 18.483 28.74C17.746 28.456 17.049 28.186 17.049 27.797C17.049 27.154 17.91 27.122 18.083 27.122C18.692 27.122 18.995 27.351 19.263 27.552C19.468 27.707 19.681 27.867 19.976 27.867C20.526 27.867 20.777 27.479 20.777 27.12C20.777 26.403 19.898 25.896 18.965 25.683V25.3C18.965 24.795 18.554 24.384 18.049 24.384C17.544 24.384 17.133 24.795 17.133 25.3V25.715C16.018 26.039 15.334 26.86 15.334 27.894C15.334 29.172 16.595 29.697 17.707 30.159C18.504 30.49 19.256 30.803 19.256 31.291C19.256 31.648 18.808 32.034 18.083 32.034C17.352 32.034 16.933 31.742 16.563 31.483C16.308 31.305 16.066 31.136 15.778 31.136C15.359 31.136 15.03 31.49 15.03 31.94C15.03 32.603 15.937 33.262 17.132 33.494V33.953C17.132 34.457 17.543 34.867 18.049 34.867C18.554 34.867 18.964 34.457 18.964 33.953L18.961 33.467C20.224 33.158 20.97 32.274 20.97 31.069V31.069Z" fill="white"/>
<path d="M20.001 13C19.946 13 19.892 12.996 19.836 12.986C19.291 12.895 18.923 12.38 19.014 11.835C19.407 9.471 21.584 5 27 5C27.553 5 28 5.448 28 6C28 6.552 27.553 7 27 7C21.905 7 21.021 11.954 20.986 12.165C20.905 12.653 20.481 13 20.001 13ZM15.999 13C15.52 13 15.097 12.655 15.014 12.167C14.977 11.957 14.059 7 8.99997 7C8.44797 7 7.99997 6.552 7.99997 6C7.99997 5.448 8.44797 5 8.99997 5C14.416 5 16.592 9.471 16.986 11.835C17.077 12.38 16.709 12.895 16.164 12.986C16.109 12.996 16.053 13 15.999 13ZM11.41 17.892C9.07497 17.892 7.53997 16.895 7.44597 16.832C6.98697 16.526 6.86297 15.905 7.16897 15.445C7.47497 14.985 8.09497 14.86 8.55597 15.168C8.65497 15.232 11.158 16.804 14.554 15.106C15.049 14.859 15.649 15.06 15.896 15.553C16.143 16.047 15.943 16.648 15.449 16.895C13.954 17.641 12.581 17.892 11.41 17.892ZM24.591 17.892C23.419 17.892 22.046 17.641 20.553 16.894C20.059 16.647 19.859 16.046 20.106 15.552C20.354 15.058 20.954 14.858 21.448 15.105C24.848 16.805 27.347 15.231 27.452 15.164C27.912 14.866 28.533 14.994 28.834 15.453C29.136 15.912 29.013 16.527 28.556 16.832C28.46 16.895 26.925 17.892 24.591 17.892Z" fill="#664500"/>
<path d="M15.391 20.08C14.938 19.885 14.412 20.053 14.152 20.47L9.15203 28.47C8.96003 28.779 8.94903 29.167 9.12603 29.485C9.30203 29.803 9.63603 30 10 30H13C13.459 30 13.859 29.688 13.97 29.242L15.97 21.242C16.089 20.766 15.844 20.272 15.391 20.08V20.08ZM26.848 28.47L21.848 20.47C21.586 20.052 21.061 19.886 20.61 20.08C20.157 20.272 19.911 20.766 20.031 21.242L22.031 29.242C22.142 29.688 22.541 30 23 30H26C26.363 30 26.698 29.803 26.875 29.484C27.051 29.167 27.041 28.778 26.848 28.47V28.47Z" fill="#F5F8FA"/>
<path d="M31.982 30.178C31.985 30.118 32 30.061 32 30C32 28.344 30.656 27 29 27C27.973 27 27.068 27.518 26.527 28.305C26.057 28.11 25.541 28 25 28C22.791 28 21 29.791 21 32C21 34.209 22.791 36 25 36C26.365 36 27.568 35.313 28.29 34.269C28.77 35.289 29.798 36 31 36C32.657 36 34 34.657 34 33C34 31.688 33.154 30.586 31.982 30.178ZM11 28C10.458 28 9.944 28.11 9.473 28.305C8.932 27.518 8.027 27 7 27C5.344 27 4 28.344 4 30C4 30.061 4.014 30.118 4.018 30.178C2.846 30.586 2 31.688 2 33C2 34.657 3.343 36 5 36C6.202 36 7.231 35.289 7.709 34.269C8.432 35.313 9.634 36 11 36C13.209 36 15 34.209 15 32C15 29.791 13.209 28 11 28Z" fill="#E1E8ED"/>
</svg>
