<svg width="36" height="36" viewBox="0 0 36 36" fill="none" xmlns="http://www.w3.org/2000/svg">
<path d="M36 18C36 27.941 27.941 36 18 36C8.06 36 0 27.941 0 18C0 8.06 8.06 0 18 0C27.941 0 36 8.06 36 18Z" fill="#FFCC4D"/>
<path d="M7 21.263C7 25.227 11.596 30.263 18 30.263C24.404 30.263 29 25.263 29 21.263C29 21.263 18.667 24.019 7 21.263Z" fill="#664500"/>
<path d="M12 23.003V29.964C12 32.964 14 35.964 18 35.964C22 35.964 24 32.964 24 29.964V23.044C17.709 24.336 12 23.003 12 23.003V23.003Z" fill="#5D9040"/>
<path d="M20.97 31.069C20.97 29.701 19.591 29.168 18.483 28.74C17.746 28.456 17.049 28.186 17.049 27.797C17.049 27.154 17.91 27.122 18.083 27.122C18.692 27.122 18.995 27.351 19.263 27.552C19.468 27.707 19.681 27.867 19.976 27.867C20.526 27.867 20.777 27.479 20.777 27.12C20.777 26.403 19.898 25.896 18.965 25.683V25.3C18.965 24.795 18.554 24.384 18.049 24.384C17.544 24.384 17.133 24.795 17.133 25.3V25.715C16.018 26.039 15.334 26.86 15.334 27.894C15.334 29.172 16.595 29.697 17.707 30.159C18.504 30.49 19.256 30.803 19.256 31.291C19.256 31.648 18.808 32.034 18.083 32.034C17.352 32.034 16.933 31.742 16.563 31.483C16.308 31.305 16.066 31.136 15.778 31.136C15.359 31.136 15.03 31.49 15.03 31.94C15.03 32.603 15.937 33.262 17.132 33.494V33.953C17.132 34.457 17.543 34.867 18.049 34.867C18.554 34.867 18.964 34.457 18.964 33.953L18.961 33.467C20.224 33.158 20.97 32.274 20.97 31.069V31.069Z" fill="white"/>
<path d="M31.0022 15.42C30.7082 15.42 30.4202 15.282 30.2312 15.02C27.6882 11.499 24.3942 11.421 24.2552 11.42C23.7252 11.414 23.2982 10.964 23.3012 10.415C23.3042 9.86401 23.7312 9.42001 24.2612 9.42001C24.4382 9.42001 28.6302 9.47001 31.7722 13.82C32.0922 14.262 32.0052 14.889 31.5792 15.22C31.4052 15.355 31.2032 15.42 31.0022 15.42ZM5.96219 15.42C5.76219 15.42 5.55919 15.355 5.38519 15.22C4.95919 14.889 4.87419 14.262 5.19219 13.82C8.33319 9.47001 12.5262 9.42001 12.7032 9.42001C13.2352 9.42001 13.6662 9.86801 13.6662 10.42C13.6662 10.971 13.2372 11.418 12.7072 11.42C12.5572 11.422 9.27019 11.506 6.73219 15.02C6.54519 15.282 6.25519 15.42 5.96219 15.42ZM16.1852 17.018C16.1722 17.027 14.9232 17.92 12.4822 17.92C10.0402 17.92 8.79219 17.027 8.78219 17.02C8.58819 16.874 8.31619 16.888 8.13819 17.057C7.96119 17.224 7.93019 17.495 8.06619 17.698C8.12719 17.788 9.58119 19.92 12.4822 19.92C15.3822 19.92 16.8372 17.788 16.8982 17.697C17.0322 17.495 17.0022 17.227 16.8272 17.059C16.6512 16.89 16.3782 16.875 16.1852 17.018ZM28.8272 17.06C28.6522 16.891 28.3802 16.874 28.1842 17.018C28.1722 17.027 26.9222 17.92 24.4822 17.92C22.0412 17.92 20.7922 17.027 20.7822 17.02C20.5892 16.874 20.3162 16.888 20.1382 17.057C19.9612 17.224 19.9312 17.495 20.0662 17.698C20.1272 17.788 21.5812 19.92 24.4822 19.92C27.3822 19.92 28.8372 17.788 28.8982 17.697C29.0332 17.496 29.0022 17.228 28.8272 17.06Z" fill="#664500"/>
</svg>
