<svg width="36" height="36" viewBox="0 0 36 36" fill="none" xmlns="http://www.w3.org/2000/svg">
<path d="M36 18C36 27.941 27.941 36 18 36C8.06 36 0 27.941 0 18C0 8.06 8.06 0 18 0C27.941 0 36 8.06 36 18Z" fill="#FFCC4D"/>
<path d="M7 21.263C7 25.227 11.596 30.263 18 30.263C24.404 30.263 29 25.263 29 21.263C29 21.263 18.667 24.019 7 21.263Z" fill="#664500"/>
<path d="M12 23.003V29.964C12 32.964 14 35.964 18 35.964C22 35.964 24 32.964 24 29.964V23.044C17.709 24.336 12 23.003 12 23.003V23.003Z" fill="#5D9040"/>
<path d="M20.97 31.069C20.97 29.701 19.591 29.168 18.483 28.74C17.746 28.456 17.049 28.186 17.049 27.797C17.049 27.154 17.91 27.122 18.083 27.122C18.692 27.122 18.995 27.351 19.263 27.552C19.468 27.707 19.681 27.867 19.976 27.867C20.526 27.867 20.777 27.479 20.777 27.12C20.777 26.403 19.898 25.896 18.965 25.683V25.3C18.965 24.795 18.554 24.384 18.049 24.384C17.544 24.384 17.133 24.795 17.133 25.3V25.715C16.018 26.039 15.334 26.86 15.334 27.894C15.334 29.172 16.595 29.697 17.707 30.159C18.504 30.49 19.256 30.803 19.256 31.291C19.256 31.648 18.808 32.034 18.083 32.034C17.352 32.034 16.933 31.742 16.563 31.483C16.308 31.305 16.066 31.136 15.778 31.136C15.359 31.136 15.03 31.49 15.03 31.94C15.03 32.603 15.937 33.262 17.132 33.494V33.953C17.132 34.457 17.543 34.867 18.049 34.867C18.554 34.867 18.964 34.457 18.964 33.953L18.961 33.467C20.224 33.158 20.97 32.274 20.97 31.069V31.069Z" fill="white"/>
<path d="M24.5 19C27.5376 19 30 16.5376 30 13.5C30 10.4624 27.5376 8 24.5 8C21.4624 8 19 10.4624 19 13.5C19 16.5376 21.4624 19 24.5 19Z" fill="#F4F7F9"/>
<path d="M11.5 19C14.5376 19 17 16.5376 17 13.5C17 10.4624 14.5376 8 11.5 8C8.46243 8 6 10.4624 6 13.5C6 16.5376 8.46243 19 11.5 19Z" fill="#F4F7F9"/>
<path d="M10.5 13C11.881 13 13 11.881 13 10.5C13 9.24799 12.077 8.21999 10.876 8.03799C10.086 8.12699 9.35 8.38599 8.698 8.77399C8.268 9.22299 8 9.82899 8 10.5C8 11.881 9.119 13 10.5 13ZM23.5 13C24.881 13 26 11.881 26 10.5C26 9.24799 25.077 8.21999 23.876 8.03799C23.087 8.12699 22.35 8.38599 21.699 8.77399C21.268 9.22299 21 9.82899 21 10.5C21 11.881 22.119 13 23.5 13Z" fill="#65471B"/>
</svg>
