<svg width="37" height="36" viewBox="0 0 37 36" fill="none" xmlns="http://www.w3.org/2000/svg">
<path d="M36.99 18C36.99 27.941 28.931 36 18.99 36C9.04999 36 0.98999 27.941 0.98999 18C0.98999 8.06 9.04999 0 18.99 0C28.93 0 36.99 8.06 36.99 18Z" fill="#77B255"/>
<path d="M8 21.263C8 25.227 12.596 30.263 19 30.263C25.404 30.263 30 25.263 30 21.263C30 21.263 19.667 24.019 8 21.263Z" fill="#292F33"/>
<path d="M13 23.003V29.964C13 32.964 15 35.964 19 35.964C23 35.964 25 32.964 25 29.964V23.044C18.709 24.336 13 23.003 13 23.003V23.003Z" fill="#697A39"/>
<path d="M21.97 31.069C21.97 29.701 20.591 29.168 19.483 28.74C18.746 28.456 18.049 28.186 18.049 27.797C18.049 27.154 18.91 27.122 19.083 27.122C19.692 27.122 19.995 27.351 20.263 27.552C20.468 27.707 20.681 27.867 20.976 27.867C21.526 27.867 21.777 27.479 21.777 27.12C21.777 26.403 20.898 25.896 19.965 25.683V25.3C19.965 24.795 19.554 24.384 19.049 24.384C18.544 24.384 18.133 24.795 18.133 25.3V25.715C17.018 26.039 16.334 26.86 16.334 27.894C16.334 29.172 17.595 29.697 18.707 30.159C19.504 30.49 20.256 30.803 20.256 31.291C20.256 31.648 19.808 32.034 19.083 32.034C18.352 32.034 17.933 31.742 17.563 31.483C17.308 31.305 17.066 31.136 16.778 31.136C16.359 31.136 16.03 31.49 16.03 31.94C16.03 32.603 16.937 33.262 18.132 33.494V33.953C18.132 34.457 18.543 34.867 19.049 34.867C19.554 34.867 19.964 34.457 19.964 33.953L19.961 33.467C21.224 33.158 21.97 32.274 21.97 31.069V31.069Z" fill="#FBFEE6"/>
<path d="M29.028 13.036C28.784 12.736 22.257 11.534 22.202 11.534C22.084 11.534 21.951 11.623 21.927 11.739C21.709 12.766 21.875 13.81 22.393 14.68C22.914 15.556 23.73 16.15 24.689 16.353C24.921 16.402 25.16 16.427 25.396 16.427C27.142 16.427 28.692 15.091 29.082 13.25C29.096 13.175 29.076 13.094 29.028 13.036ZM15.756 11.534C15.7 11.534 9.17301 12.736 8.92901 13.036C8.88101 13.095 8.86101 13.176 8.87701 13.249C9.26601 15.089 10.816 16.425 12.563 16.425C12.799 16.425 13.037 16.4 13.27 16.351C15.242 15.934 16.481 13.865 16.032 11.738C16.008 11.623 15.875 11.534 15.756 11.534Z" fill="#292F33"/>
</svg>
