<svg width="36" height="36" viewBox="0 0 36 36" fill="none" xmlns="http://www.w3.org/2000/svg">
<path d="M36 18C36 27.941 27.941 36 18 36C8.06 36 0 27.941 0 18C0 8.06 8.06 0 18 0C27.941 0 36 8.06 36 18Z" fill="#FFCC4D"/>
<path d="M7 21.263C7 25.227 11.596 30.263 18 30.263C24.404 30.263 29 25.263 29 21.263C29 21.263 18.667 24.019 7 21.263Z" fill="#664500"/>
<path d="M12 23.003V29.964C12 32.964 14 35.964 18 35.964C22 35.964 24 32.964 24 29.964V23.044C17.709 24.336 12 23.003 12 23.003V23.003Z" fill="#5D9040"/>
<path d="M20.97 31.069C20.97 29.701 19.591 29.168 18.483 28.74C17.746 28.456 17.049 28.186 17.049 27.797C17.049 27.154 17.91 27.122 18.083 27.122C18.692 27.122 18.995 27.351 19.263 27.552C19.468 27.707 19.681 27.867 19.976 27.867C20.526 27.867 20.777 27.479 20.777 27.12C20.777 26.403 19.898 25.896 18.965 25.683V25.3C18.965 24.795 18.554 24.384 18.049 24.384C17.544 24.384 17.133 24.795 17.133 25.3V25.715C16.018 26.039 15.334 26.86 15.334 27.894C15.334 29.172 16.595 29.697 17.707 30.159C18.504 30.49 19.256 30.803 19.256 31.291C19.256 31.648 18.808 32.034 18.083 32.034C17.352 32.034 16.933 31.742 16.563 31.483C16.308 31.305 16.066 31.136 15.778 31.136C15.359 31.136 15.03 31.49 15.03 31.94C15.03 32.603 15.937 33.262 17.132 33.494V33.953C17.132 34.457 17.543 34.867 18.049 34.867C18.554 34.867 18.964 34.457 18.964 33.953L18.961 33.467C20.224 33.158 20.97 32.274 20.97 31.069V31.069Z" fill="white"/>
<path d="M29.001 14C28.696 14 28.397 13.862 28.2 13.6C25.768 10.356 21.686 12.754 21.514 12.857C21.039 13.142 20.425 12.987 20.142 12.514C19.858 12.04 20.011 11.426 20.485 11.142C22.483 9.94301 26.999 8.66501 29.799 12.399C30.131 12.841 30.041 13.468 29.599 13.799C29.42 13.935 29.21 14 29.001 14ZM6.99901 14C6.79101 14 6.58001 13.935 6.40001 13.8C5.95801 13.469 5.86901 12.842 6.20001 12.4C9.00101 8.66601 13.517 9.94401 15.514 11.143C15.988 11.427 16.141 12.041 15.857 12.515C15.573 12.988 14.961 13.143 14.487 12.859C14.308 12.753 10.213 10.384 7.79901 13.601C7.60401 13.862 7.30301 14 6.99901 14ZM29 16C29 15.448 28.553 15 28 15H21C20.447 15 20 15.448 20 16C20 16.552 20.447 17 21 17H26.092C26.299 17.581 26.848 18 27.5 18C28.328 18 29 17.329 29 16.5C29 16.39 28.986 16.283 28.964 16.179C28.976 16.119 29 16.063 29 16ZM16 16C16 15.448 15.552 15 15 15H8.00001C7.44801 15 7.00001 15.448 7.00001 16C7.00001 16.552 7.44801 17 8.00001 17H13.092C13.299 17.581 13.848 18 14.5 18C15.328 18 16 17.329 16 16.5C16 16.39 15.986 16.283 15.964 16.179C15.975 16.119 16 16.063 16 16Z" fill="#664500"/>
</svg>
