<svg width="36" height="36" viewBox="0 0 36 36" fill="none" xmlns="http://www.w3.org/2000/svg">
<path d="M36 18C36 27.941 27.941 36 18 36C8.06 36 0 27.941 0 18C0 8.06 8.06 0 18 0C27.941 0 36 8.06 36 18Z" fill="#FFCC4D"/>
<path d="M7 21.263C7 25.227 11.596 30.263 18 30.263C24.404 30.263 29 25.263 29 21.263C29 21.263 18.667 24.019 7 21.263Z" fill="#664500"/>
<path d="M12 23.003V29.964C12 32.964 14 35.964 18 35.964C22 35.964 24 32.964 24 29.964V23.044C17.709 24.336 12 23.003 12 23.003V23.003Z" fill="#5D9040"/>
<path d="M20.97 31.069C20.97 29.701 19.591 29.168 18.483 28.74C17.746 28.456 17.049 28.186 17.049 27.797C17.049 27.154 17.91 27.122 18.083 27.122C18.692 27.122 18.995 27.351 19.263 27.552C19.468 27.707 19.681 27.867 19.976 27.867C20.526 27.867 20.777 27.479 20.777 27.12C20.777 26.403 19.898 25.896 18.965 25.683V25.3C18.965 24.795 18.554 24.384 18.049 24.384C17.544 24.384 17.133 24.795 17.133 25.3V25.715C16.018 26.039 15.334 26.86 15.334 27.894C15.334 29.172 16.595 29.697 17.707 30.159C18.504 30.49 19.256 30.803 19.256 31.291C19.256 31.648 18.808 32.034 18.083 32.034C17.352 32.034 16.933 31.742 16.563 31.483C16.308 31.305 16.066 31.136 15.778 31.136C15.359 31.136 15.03 31.49 15.03 31.94C15.03 32.603 15.937 33.262 17.132 33.494V33.953C17.132 34.457 17.543 34.867 18.049 34.867C18.554 34.867 18.964 34.457 18.964 33.953L18.961 33.467C20.224 33.158 20.97 32.274 20.97 31.069V31.069Z" fill="white"/>
<path d="M18 0C8.06 0 0 8.06 0 18C0 19.192 0.123 20.356 0.344 21.484C0.578 20.621 0.944 19.793 1.402 19C0.939 19 0.564 19.066 0.252 19.183C0.516 18.524 1.074 18.135 2.02 18.041C5.012 13.862 11.037 11 18 11C24.964 11 30.988 13.861 33.98 18.04C34.93 18.134 35.49 18.522 35.752 19.183C35.44 19.066 35.063 19 34.599 19C35.057 19.793 35.422 20.621 35.657 21.484C35.878 20.356 36 19.192 36 18C36 8.06 27.941 0 18 0V0Z" fill="#BDDDF4"/>
<path d="M7.34698 11.91C6.40098 15.086 7.45398 18.203 9.69998 18.872C11.946 19.542 14.534 17.51 15.479 14.334C16.425 11.159 15.373 8.04101 13.128 7.37201C10.882 6.70301 8.29398 8.735 7.34698 11.91ZM28.652 11.91C29.598 15.086 28.545 18.203 26.3 18.872C24.054 19.542 21.466 17.51 20.521 14.334C19.575 11.159 20.628 8.04101 22.872 7.37201C25.117 6.70301 27.705 8.735 28.652 11.91Z" fill="#F5F8FA"/>
<path d="M1.40398 19C0.939977 19 0.563977 19.066 0.250977 19.183C0.322977 19.004 0.417977 18.847 0.531977 18.707C-1.33002 20.998 2.84898 28.54 0.817977 36H7.27798C8.46798 29.04 6.04298 19 1.40398 19ZM35.753 19.183C35.439 19.066 35.062 19 34.596 19C29.955 19 27.531 29.002 28.723 36H35.183C33.277 28.955 36.839 21.911 35.753 19.183Z" fill="#FCAB40"/>
</svg>
