<svg width="36" height="36" viewBox="0 0 36 36" fill="none" xmlns="http://www.w3.org/2000/svg">
<path d="M36 18C36 27.941 27.941 36 18 36C8.06 36 0 27.941 0 18C0 8.06 8.06 0 18 0C27.941 0 36 8.06 36 18Z" fill="#FFCC4D"/>
<path d="M7 21.263C7 25.227 11.596 30.263 18 30.263C24.404 30.263 29 25.263 29 21.263C29 21.263 18.667 24.019 7 21.263Z" fill="#664500"/>
<path d="M12 23.003V29.964C12 32.964 14 35.964 18 35.964C22 35.964 24 32.964 24 29.964V23.044C17.709 24.336 12 23.003 12 23.003V23.003Z" fill="#5D9040"/>
<path d="M20.97 31.069C20.97 29.701 19.591 29.168 18.483 28.74C17.746 28.456 17.049 28.186 17.049 27.797C17.049 27.154 17.91 27.122 18.083 27.122C18.692 27.122 18.995 27.351 19.263 27.552C19.468 27.707 19.681 27.867 19.976 27.867C20.526 27.867 20.777 27.479 20.777 27.12C20.777 26.403 19.898 25.896 18.965 25.683V25.3C18.965 24.795 18.554 24.384 18.049 24.384C17.544 24.384 17.133 24.795 17.133 25.3V25.715C16.018 26.039 15.334 26.86 15.334 27.894C15.334 29.172 16.595 29.697 17.707 30.159C18.504 30.49 19.256 30.803 19.256 31.291C19.256 31.648 18.808 32.034 18.083 32.034C17.352 32.034 16.933 31.742 16.563 31.483C16.308 31.305 16.066 31.136 15.778 31.136C15.359 31.136 15.03 31.49 15.03 31.94C15.03 32.603 15.937 33.262 17.132 33.494V33.953C17.132 34.457 17.543 34.867 18.049 34.867C18.554 34.867 18.964 34.457 18.964 33.953L18.961 33.467C20.224 33.158 20.97 32.274 20.97 31.069V31.069Z" fill="white"/>
<path d="M6.00098 11C5.44898 11 5.00098 10.552 5.00098 10C5.00098 9.449 5.44598 9.002 5.99698 9C6.15298 8.998 9.56598 8.914 12.202 5.4C12.533 4.96 13.159 4.868 13.602 5.2C14.044 5.531 14.133 6.158 13.802 6.6C10.539 10.95 6.18498 11 6.00098 11V11ZM30.987 13.393C31.115 13.93 30.783 14.47 30.246 14.598C29.71 14.726 29.172 14.396 29.042 13.861C29.004 13.71 28.131 10.409 24.101 8.66C23.596 8.44 23.362 7.852 23.582 7.345C23.802 6.838 24.391 6.606 24.897 6.826C29.886 8.991 30.944 13.214 30.987 13.393V13.393Z" fill="#65471B"/>
<path d="M14.815 15.375C14.231 17.489 13.173 18.458 11.663 18.041C10.154 17.624 9.32001 16.132 9.90301 14.018C10.486 11.906 12.078 10.655 13.587 11.072C15.098 11.489 15.399 13.262 14.815 15.375ZM26.231 14.62C26.704 16.761 25.556 19.458 24.027 19.796C22.498 20.134 20.747 18.077 20.274 15.936C19.801 13.796 20.693 11.965 22.222 11.627C23.751 11.289 25.758 12.48 26.231 14.62Z" fill="#65471B"/>
</svg>
