<svg width="36" height="36" viewBox="0 0 36 36" fill="none" xmlns="http://www.w3.org/2000/svg">
<path d="M18 36C27.9411 36 36 27.9411 36 18C36 8.05887 27.9411 0 18 0C8.05887 0 0 8.05887 0 18C0 27.9411 8.05887 36 18 36Z" fill="#EA596E"/>
<path d="M7 21.263C7 25.227 11.596 30.263 18 30.263C24.404 30.263 29 25.263 29 21.263C29 21.263 18.667 24.019 7 21.263Z" fill="#292F33"/>
<path d="M12 23.003V29.964C12 32.964 14 35.964 18 35.964C22 35.964 24 32.964 24 29.964V23.044C17.709 24.336 12 23.003 12 23.003V23.003Z" fill="#9DB55A"/>
<path d="M20.97 31.069C20.97 29.701 19.591 29.168 18.483 28.74C17.746 28.456 17.049 28.186 17.049 27.797C17.049 27.154 17.91 27.122 18.083 27.122C18.692 27.122 18.995 27.351 19.263 27.552C19.468 27.707 19.681 27.867 19.976 27.867C20.526 27.867 20.777 27.479 20.777 27.12C20.777 26.403 19.898 25.896 18.965 25.683V25.3C18.965 24.795 18.554 24.384 18.049 24.384C17.544 24.384 17.133 24.795 17.133 25.3V25.715C16.018 26.039 15.334 26.86 15.334 27.894C15.334 29.172 16.595 29.697 17.707 30.159C18.504 30.49 19.256 30.803 19.256 31.291C19.256 31.648 18.808 32.034 18.083 32.034C17.352 32.034 16.933 31.742 16.563 31.483C16.308 31.305 16.066 31.136 15.778 31.136C15.359 31.136 15.03 31.49 15.03 31.94C15.03 32.603 15.937 33.262 17.132 33.494V33.953C17.132 34.457 17.543 34.867 18.049 34.867C18.554 34.867 18.964 34.457 18.964 33.953L18.961 33.467C20.224 33.158 20.97 32.274 20.97 31.069V31.069Z" fill="#FFF5F5"/>
<path d="M29 12C23.446 12 21.198 7.63299 21.105 7.44699C20.858 6.95299 21.058 6.35199 21.552 6.10499C22.045 5.85799 22.644 6.05699 22.892 6.54799C22.967 6.69399 24.713 9.99999 29 9.99999C29.553 9.99999 30 10.448 30 11C30 11.552 29.553 12 29 12ZM7 12C6.448 12 6 11.552 6 11C6 10.448 6.448 9.99999 7 9.99999C12.083 9.99999 12.996 6.87999 13.033 6.74699C13.178 6.21899 13.725 5.89899 14.252 6.03799C14.782 6.17699 15.103 6.71099 14.97 7.24299C14.921 7.43699 13.704 12 7 12Z" fill="#292F33"/>
<path d="M12 20C13.3807 20 14.5 18.433 14.5 16.5C14.5 14.567 13.3807 13 12 13C10.6193 13 9.5 14.567 9.5 16.5C9.5 18.433 10.6193 20 12 20Z" fill="#292F33"/>
<path d="M24 20C25.3807 20 26.5 18.433 26.5 16.5C26.5 14.567 25.3807 13 24 13C22.6193 13 21.5 14.567 21.5 16.5C21.5 18.433 22.6193 20 24 20Z" fill="#292F33"/>
<path d="M35.906 12.062C35.906 14.876 33.626 17.156 30.812 17.156C27.998 17.156 25.718 14.876 25.718 12.062C25.718 9.24799 29.793 1.87399 30.812 1.87399C31.831 1.87399 35.906 9.24899 35.906 12.062V12.062ZM8.57302 8.43799C8.57302 10.751 6.69802 12.626 4.38502 12.626C2.07202 12.626 0.197021 10.751 0.197021 8.43799C0.197021 6.12499 3.54702 0.0629883 4.38502 0.0629883C5.22302 0.0629883 8.57302 6.12499 8.57302 8.43799Z" fill="#5DADEC"/>
</svg>
