<svg width="36" height="36" viewBox="0 0 36 36" fill="none" xmlns="http://www.w3.org/2000/svg">
<path d="M36 18C36 27.941 27.941 36 18 36C8.06 36 0 27.941 0 18C0 8.06 8.06 0 18 0C27.941 0 36 8.06 36 18Z" fill="#FFCC4D"/>
<path d="M7 21.263C7 25.227 11.596 30.263 18 30.263C24.404 30.263 29 25.263 29 21.263C29 21.263 18.667 24.019 7 21.263Z" fill="#664500"/>
<path d="M12 23.003V29.964C12 32.964 14 35.964 18 35.964C22 35.964 24 32.964 24 29.964V23.044C17.709 24.336 12 23.003 12 23.003V23.003Z" fill="#5D9040"/>
<path d="M20.97 31.069C20.97 29.701 19.591 29.168 18.483 28.74C17.746 28.456 17.049 28.186 17.049 27.797C17.049 27.154 17.91 27.122 18.083 27.122C18.692 27.122 18.995 27.351 19.263 27.552C19.468 27.707 19.681 27.867 19.976 27.867C20.526 27.867 20.777 27.479 20.777 27.12C20.777 26.403 19.898 25.896 18.965 25.683V25.3C18.965 24.795 18.554 24.384 18.049 24.384C17.544 24.384 17.133 24.795 17.133 25.3V25.715C16.018 26.039 15.334 26.86 15.334 27.894C15.334 29.172 16.595 29.697 17.707 30.159C18.504 30.49 19.256 30.803 19.256 31.291C19.256 31.648 18.808 32.034 18.083 32.034C17.352 32.034 16.933 31.742 16.563 31.483C16.308 31.305 16.066 31.136 15.778 31.136C15.359 31.136 15.03 31.49 15.03 31.94C15.03 32.603 15.937 33.262 17.132 33.494V33.953C17.132 34.457 17.543 34.867 18.049 34.867C18.554 34.867 18.964 34.457 18.964 33.953L18.961 33.467C20.224 33.158 20.97 32.274 20.97 31.069V31.069Z" fill="white"/>
<path d="M28.457 17.797C28.397 17.662 26.958 14.5 24 14.5C21.043 14.5 19.603 17.662 19.543 17.797C19.451 18.004 19.511 18.246 19.688 18.388C19.863 18.53 20.114 18.535 20.298 18.402C20.31 18.393 21.56 17.5 24 17.5C26.426 17.5 27.674 18.381 27.702 18.401C27.79 18.467 27.896 18.5 28 18.5C28.11 18.5 28.221 18.463 28.312 18.391C28.489 18.249 28.55 18.005 28.457 17.797ZM16.457 17.797C16.397 17.662 14.958 14.5 12 14.5C9.04303 14.5 7.60303 17.662 7.54303 17.797C7.45103 18.004 7.51103 18.246 7.68703 18.388C7.86303 18.53 8.11403 18.535 8.29703 18.402C8.31003 18.393 9.55903 17.5 12 17.5C14.426 17.5 15.674 18.381 15.702 18.401C15.79 18.467 15.896 18.5 16 18.5C16.11 18.5 16.221 18.463 16.312 18.391C16.49 18.249 16.549 18.005 16.457 17.797ZM31 16C30.604 16 30.228 15.762 30.071 15.371C28.293 10.926 23.848 9.99 23.803 9.98C23.262 9.872 22.91 9.345 23.019 8.803C23.127 8.261 23.654 7.912 24.196 8.019C24.422 8.064 29.752 9.187 31.928 14.627C32.133 15.14 31.883 15.722 31.37 15.927C31.25 15.977 31.124 16 31 16ZM5.00003 16C4.87603 16 4.75103 15.977 4.62903 15.928C4.11603 15.723 3.86703 15.141 4.07203 14.628C6.24803 9.188 11.578 8.065 11.804 8.02C12.347 7.914 12.872 8.263 12.981 8.804C13.089 9.344 12.739 9.87 12.2 9.98C12.015 10.018 7.69403 10.96 5.92903 15.371C5.77203 15.762 5.39603 16 5.00003 16Z" fill="#664500"/>
<path d="M10.847 28.229C10.167 30.906 7.447 32.524 4.77 31.844C2.094 31.165 0.475 28.445 1.154 25.768C1.833 23.091 7.491 17.06 8.461 17.306C9.431 17.553 11.526 25.553 10.847 28.229V28.229ZM25.133 28.229C25.813 30.906 28.533 32.524 31.21 31.844C33.887 31.165 35.506 28.445 34.826 25.768C34.146 23.091 28.488 17.06 27.518 17.306C26.55 17.553 24.454 25.553 25.133 28.229V28.229Z" fill="#5DADEC"/>
</svg>
