<svg width="36" height="36" viewBox="0 0 36 36" fill="none" xmlns="http://www.w3.org/2000/svg">
<path d="M36 18C36 27.941 27.941 36 18 36C8.06 36 0 27.941 0 18C0 8.06 8.06 0 18 0C27.941 0 36 8.06 36 18Z" fill="#FFCC4D"/>
<path d="M7 21.263C7 25.227 11.596 30.263 18 30.263C24.404 30.263 29 25.263 29 21.263C29 21.263 18.667 24.019 7 21.263Z" fill="#664500"/>
<path d="M12 23.003V29.964C12 32.964 14 35.964 18 35.964C22 35.964 24 32.964 24 29.964V23.044C17.709 24.336 12 23.003 12 23.003V23.003Z" fill="#5D9040"/>
<path d="M20.97 31.069C20.97 29.701 19.591 29.168 18.483 28.74C17.746 28.456 17.049 28.186 17.049 27.797C17.049 27.154 17.91 27.122 18.083 27.122C18.692 27.122 18.995 27.351 19.263 27.552C19.468 27.707 19.681 27.867 19.976 27.867C20.526 27.867 20.777 27.479 20.777 27.12C20.777 26.403 19.898 25.896 18.965 25.683V25.3C18.965 24.795 18.554 24.384 18.049 24.384C17.544 24.384 17.133 24.795 17.133 25.3V25.715C16.018 26.039 15.334 26.86 15.334 27.894C15.334 29.172 16.595 29.697 17.707 30.159C18.504 30.49 19.256 30.803 19.256 31.291C19.256 31.648 18.808 32.034 18.083 32.034C17.352 32.034 16.933 31.742 16.563 31.483C16.308 31.305 16.066 31.136 15.778 31.136C15.359 31.136 15.03 31.49 15.03 31.94C15.03 32.603 15.937 33.262 17.132 33.494V33.953C17.132 34.457 17.543 34.867 18.049 34.867C18.554 34.867 18.964 34.457 18.964 33.953L18.961 33.467C20.224 33.158 20.97 32.274 20.97 31.069V31.069Z" fill="white"/>
<path d="M12 19.25C13.3807 19.25 14.5 18.0188 14.5 16.5C14.5 14.9812 13.3807 13.75 12 13.75C10.6193 13.75 9.5 14.9812 9.5 16.5C9.5 18.0188 10.6193 19.25 12 19.25Z" fill="#664500"/>
<path d="M24 20C25.3807 20 26.5 18.433 26.5 16.5C26.5 14.567 25.3807 13 24 13C22.6193 13 21.5 14.567 21.5 16.5C21.5 18.433 22.6193 20 24 20Z" fill="#664500"/>
<path d="M7.102 12.559C7.351 12.735 7.676 12.795 7.987 12.694C12.174 11.339 15.014 13.248 15.133 13.33C15.586 13.642 16.208 13.531 16.523 13.08C16.838 12.629 16.731 12.009 16.282 11.692C16.132 11.586 12.546 9.11699 7.372 10.791C6.846 10.961 6.558 11.525 6.729 12.05C6.797 12.264 6.932 12.438 7.102 12.559ZM30.001 10.408C29.633 10.408 29.27 10.247 29.022 9.93699C27.627 8.18599 24.723 6.64999 23.708 6.64999C23.066 6.64999 21.783 7.56099 21.104 8.21799C20.608 8.69999 19.816 8.68499 19.337 8.18999C18.857 7.69499 18.868 6.90499 19.361 6.42399C19.752 6.04399 21.797 4.14899 23.708 4.14899C25.713 4.14899 29.246 6.20499 30.978 8.37799C31.409 8.91799 31.319 9.70399 30.78 10.134C30.549 10.319 30.273 10.408 30.001 10.408Z" fill="#664500"/>
</svg>
