<svg width="36" height="36" viewBox="0 0 36 36" fill="none" xmlns="http://www.w3.org/2000/svg">
<path d="M36 18C36 27.941 27.941 36 18 36C8.06 36 0 27.941 0 18C0 8.06 8.06 0 18 0C27.941 0 36 8.06 36 18Z" fill="#FFCC4D"/>
<path d="M7 21.263C7 25.227 11.596 30.263 18 30.263C24.404 30.263 29 25.263 29 21.263C29 21.263 18.667 24.019 7 21.263Z" fill="#664500"/>
<path d="M12 23.003V29.964C12 32.964 14 35.964 18 35.964C22 35.964 24 32.964 24 29.964V23.044C17.709 24.336 12 23.003 12 23.003V23.003Z" fill="#5D9040"/>
<path d="M20.97 31.069C20.97 29.701 19.591 29.168 18.483 28.74C17.746 28.456 17.049 28.186 17.049 27.797C17.049 27.154 17.91 27.122 18.083 27.122C18.692 27.122 18.995 27.351 19.263 27.552C19.468 27.707 19.681 27.867 19.976 27.867C20.526 27.867 20.777 27.479 20.777 27.12C20.777 26.403 19.898 25.896 18.965 25.683V25.3C18.965 24.795 18.554 24.384 18.049 24.384C17.544 24.384 17.133 24.795 17.133 25.3V25.715C16.018 26.039 15.334 26.86 15.334 27.894C15.334 29.172 16.595 29.697 17.707 30.159C18.504 30.49 19.256 30.803 19.256 31.291C19.256 31.648 18.808 32.034 18.083 32.034C17.352 32.034 16.933 31.742 16.563 31.483C16.308 31.305 16.066 31.136 15.778 31.136C15.359 31.136 15.03 31.49 15.03 31.94C15.03 32.603 15.937 33.262 17.132 33.494V33.953C17.132 34.457 17.543 34.867 18.049 34.867C18.554 34.867 18.964 34.457 18.964 33.953L18.961 33.467C20.224 33.158 20.97 32.274 20.97 31.069V31.069Z" fill="white"/>
<path d="M6.00101 19C5.69701 19 5.39701 18.862 5.20001 18.6C4.86801 18.159 4.95801 17.532 5.40001 17.201C5.54301 17.094 8.35101 15.018 12.256 14.268C9.78101 13.027 7.03401 13 6.99901 13C6.44701 12.998 6.00001 12.55 6.00101 11.998C6.00101 11.447 6.44801 11 7.00001 11C7.22101 11 12.452 11.038 15.707 14.293C15.993 14.579 16.079 15.009 15.924 15.383C15.769 15.757 15.404 16 15 16C10.387 16 6.63701 18.772 6.60001 18.8C6.42001 18.935 6.20901 19 6.00101 19ZM29.999 18.999C29.791 18.999 29.581 18.935 29.401 18.801C29.363 18.772 25.59 16 21 16C20.596 16 20.23 15.757 20.076 15.383C19.921 15.009 20.007 14.579 20.293 14.293C23.549 11.038 28.779 11 29 11C29.552 11 29.998 11.447 29.999 11.998C30 12.55 29.553 12.998 29.002 13C28.966 13 26.219 13.027 23.744 14.268C27.649 15.018 30.457 17.093 30.599 17.201C31.04 17.532 31.13 18.157 30.8 18.599C30.604 18.86 30.304 18.999 29.999 18.999Z" fill="#664500"/>
<path d="M18.406 18.033C21.084 20.709 14.432 33.557 13.156 34.833C12.106 35.883 8.956 35.883 7.906 33.783C6.856 31.683 3.706 33.783 2.656 32.733C0.556001 30.633 3.706 29.583 2.656 27.483C1.606 25.383 -0.493999 24.333 1.606 22.233C3.706 20.133 8.956 21.183 12.106 19.083C15.256 16.983 17.355 16.983 18.406 18.033V18.033Z" fill="#CCD6DD"/>
<path d="M17.322 19.872C17.306 19.81 17.269 19.759 17.243 19.702C17.213 19.636 17.193 19.567 17.149 19.508C16.988 19.29 16.744 19.134 16.455 19.093H16.454C16.317 19.074 16.18 19.082 16.048 19.115C15.957 19.138 15.879 19.186 15.799 19.232C15.761 19.253 15.719 19.262 15.684 19.288C15.573 19.37 15.478 19.473 15.406 19.593C12.472 24.483 5.46403 27.537 5.39303 27.568C4.86003 27.797 4.61403 28.414 4.84303 28.947C5.01403 29.345 5.40103 29.583 5.80803 29.583C5.94603 29.583 6.08603 29.556 6.22103 29.498C6.44403 29.402 10.276 27.728 13.646 24.786C11.578 28.611 8.41603 30.781 8.37303 30.811C7.89203 31.134 7.76303 31.785 8.08503 32.267C8.28803 32.569 8.62003 32.734 8.95903 32.734C9.15903 32.734 9.36103 32.677 9.54003 32.558C9.81303 32.375 16.243 28.009 17.347 20.284C17.365 20.144 17.356 20.005 17.322 19.872Z" fill="#F5F8FA"/>
</svg>
