<svg width="36" height="37" viewBox="0 0 36 37" fill="none" xmlns="http://www.w3.org/2000/svg">
<path d="M36 18C36 27.941 27.941 36 18 36C8.06 36 0 27.941 0 18C0 8.06 8.06 0 18 0C27.941 0 36 8.06 36 18Z" fill="#FFCC4D"/>
<path d="M29.284 9.01201C30.063 12.648 27.747 16.228 24.111 17.007C20.475 17.786 16.895 15.47 16.115 11.834C15.336 8.19801 17.652 4.61801 21.288 3.83901C24.924 3.06001 28.505 5.37501 29.284 9.01201Z" fill="#F4F7F9"/>
<path d="M22.306 11.328C23.431 11.328 24.343 10.416 24.343 9.291C24.343 8.16599 23.431 7.254 22.306 7.254C21.181 7.254 20.269 8.16599 20.269 9.291C20.269 10.416 21.181 11.328 22.306 11.328Z" fill="#292F33"/>
<path d="M14.088 14.282C14.544 16.408 13.189 18.501 11.063 18.957C8.93699 19.413 6.84399 18.058 6.38799 15.932C5.93199 13.806 7.28699 11.713 9.41299 11.257C11.539 10.801 13.632 12.156 14.088 14.282V14.282Z" fill="#F4F7F9"/>
<path d="M10.6457 17.7554C11.6944 17.5306 12.3624 16.4983 12.1377 15.4496C11.9129 14.4008 10.8806 13.7329 9.83187 13.9576C8.78315 14.1823 8.11516 15.2147 8.3399 16.2634C8.56463 17.3121 9.59697 17.9801 10.6457 17.7554Z" fill="#292F33"/>
<path d="M18.625 20.937C15.082 21.696 12.644 21.787 9.61497 21.845C8.92397 21.86 7.65997 22.264 8.07897 24.22C8.91697 28.131 14.458 32.057 20.721 30.715C26.983 29.373 30.429 23.521 29.591 19.61C29.172 17.654 27.852 17.802 27.216 18.074C24.43 19.261 22.168 20.178 18.625 20.937Z" fill="#65471B"/>
<path d="M11 24.004V30.004C11 33.004 13 36.004 17 36.004C21 36.004 23 33.004 23 30.004V24.004H11V24.004Z" fill="#E8596E"/>
<path d="M17 31.883C17.301 31.883 17.545 31.639 17.545 31.338V25.043H16.454V31.338C16.455 31.639 16.699 31.883 17 31.883V31.883Z" fill="#DD2F45"/>
<path d="M11 24V29.961C11 32.961 13 35.961 17 35.961C21 35.961 23 32.961 23 29.961V24L11 24Z" fill="#5D9040"/>
<path d="M19.97 31.066C19.97 29.698 18.591 29.165 17.483 28.737C16.746 28.453 16.049 28.183 16.049 27.794C16.049 27.151 16.91 27.119 17.083 27.119C17.692 27.119 17.995 27.348 18.263 27.549C18.468 27.704 18.681 27.864 18.976 27.864C19.526 27.864 19.777 27.476 19.777 27.117C19.777 26.4 18.898 25.893 17.965 25.68V25.297C17.965 24.792 17.554 24.381 17.049 24.381C16.544 24.381 16.133 24.792 16.133 25.297V25.712C15.018 26.036 14.334 26.857 14.334 27.891C14.334 29.169 15.595 29.694 16.707 30.156C17.504 30.487 18.256 30.8 18.256 31.288C18.256 31.645 17.808 32.031 17.083 32.031C16.352 32.031 15.933 31.739 15.563 31.48C15.308 31.302 15.066 31.133 14.778 31.133C14.359 31.133 14.03 31.487 14.03 31.937C14.03 32.6 14.937 33.259 16.132 33.491V33.95C16.132 34.454 16.543 34.864 17.049 34.864C17.554 34.864 17.964 34.454 17.964 33.95L17.961 33.464C19.224 33.155 19.97 32.271 19.97 31.066V31.066Z" fill="white"/>
<path d="M10.034 23.801C10.034 23.801 13.177 24.15 19.044 22.893C24.911 21.636 27.635 20.029 27.635 20.029C27.635 20.029 26.518 24.359 19.673 25.826C12.828 27.293 10.034 23.801 10.034 23.801V23.801Z" fill="white"/>
</svg>
