<svg width="36" height="36" viewBox="0 0 36 36" fill="none" xmlns="http://www.w3.org/2000/svg">
<path d="M36 18C36 27.941 27.941 36 18 36C8.06 36 0 27.941 0 18C0 8.06 8.06 0 18 0C27.941 0 36 8.06 36 18Z" fill="#FFCC4D"/>
<path d="M28.457 17.797C28.397 17.662 26.958 14.5 24 14.5C21.043 14.5 19.603 17.662 19.543 17.797C19.451 18.004 19.511 18.246 19.688 18.388C19.863 18.53 20.114 18.535 20.298 18.402C20.31 18.393 21.56 17.5 24 17.5C26.426 17.5 27.674 18.381 27.702 18.401C27.79 18.467 27.896 18.5 28 18.5C28.11 18.5 28.221 18.463 28.312 18.391C28.489 18.249 28.55 18.005 28.457 17.797V17.797ZM16.457 17.797C16.397 17.662 14.958 14.5 12 14.5C9.043 14.5 7.603 17.662 7.543 17.797C7.451 18.004 7.511 18.246 7.687 18.388C7.863 18.53 8.114 18.535 8.297 18.402C8.31 18.393 9.559 17.5 12 17.5C14.426 17.5 15.674 18.381 15.702 18.401C15.79 18.467 15.896 18.5 16 18.5C16.11 18.5 16.221 18.463 16.312 18.391C16.49 18.249 16.549 18.005 16.457 17.797V17.797ZM18 22C14.377 22 11.973 21.578 9 21C8.321 20.869 7 21 7 23C7 27 11.595 32 18 32C24.404 32 29 27 29 23C29 21 27.679 20.868 27 21C24.027 21.578 21.623 22 18 22Z" fill="#664500"/>
<path d="M12 24V29.964C12 32.964 14 35.964 18 35.964C22 35.964 24 32.964 24 29.964V24C17.709 25.292 12 24 12 24Z" fill="#5D9040"/>
<path d="M20.97 31.069C20.97 29.701 19.591 29.168 18.483 28.74C17.746 28.456 17.049 28.186 17.049 27.797C17.049 27.154 17.91 27.122 18.083 27.122C18.692 27.122 18.995 27.351 19.263 27.552C19.468 27.707 19.681 27.867 19.976 27.867C20.526 27.867 20.777 27.479 20.777 27.12C20.777 26.403 19.898 25.896 18.965 25.683V25.3C18.965 24.795 18.554 24.384 18.049 24.384C17.544 24.384 17.133 24.795 17.133 25.3V25.715C16.018 26.039 15.334 26.86 15.334 27.894C15.334 29.172 16.595 29.697 17.707 30.159C18.504 30.49 19.256 30.803 19.256 31.291C19.256 31.648 18.808 32.034 18.083 32.034C17.352 32.034 16.933 31.742 16.563 31.483C16.308 31.305 16.066 31.136 15.778 31.136C15.359 31.136 15.03 31.49 15.03 31.94C15.03 32.603 15.937 33.262 17.132 33.494V33.953C17.132 34.457 17.543 34.867 18.049 34.867C18.554 34.867 18.964 34.457 18.964 33.953L18.961 33.467C20.224 33.158 20.97 32.274 20.97 31.069V31.069Z" fill="white"/>
<path d="M9 23C9 23 12 24 18 24C24 24 27 23 27 23C27 23 25 27 18 27C11 27 9 23 9 23Z" fill="white"/>
<path d="M35 11C35 13.762 32.762 16 30 16C27.238 16 25 13.762 25 11C25 8.238 29 1 30 1C31 1 35 8.238 35 11Z" fill="#5DADEC"/>
</svg>
