<svg width="36" height="36" viewBox="0 0 36 36" fill="none" xmlns="http://www.w3.org/2000/svg">
<path d="M36 18C36 27.941 27.941 36 18 36C8.06 36 0 27.941 0 18C0 8.06 8.06 0 18 0C27.941 0 36 8.06 36 18Z" fill="#FFCC4D"/>
<path d="M7 21.263C7 25.227 11.596 30.263 18 30.263C24.404 30.263 29 25.263 29 21.263C29 21.263 18.667 24.019 7 21.263Z" fill="#664500"/>
<path d="M12 23.003V29.964C12 32.964 14 35.964 18 35.964C22 35.964 24 32.964 24 29.964V23.044C17.709 24.336 12 23.003 12 23.003V23.003Z" fill="#5D9040"/>
<path d="M20.97 31.069C20.97 29.701 19.591 29.168 18.483 28.74C17.746 28.456 17.049 28.186 17.049 27.797C17.049 27.154 17.91 27.122 18.083 27.122C18.692 27.122 18.995 27.351 19.263 27.552C19.468 27.707 19.681 27.867 19.976 27.867C20.526 27.867 20.777 27.479 20.777 27.12C20.777 26.403 19.898 25.896 18.965 25.683V25.3C18.965 24.795 18.554 24.384 18.049 24.384C17.544 24.384 17.133 24.795 17.133 25.3V25.715C16.018 26.039 15.334 26.86 15.334 27.894C15.334 29.172 16.595 29.697 17.707 30.159C18.504 30.49 19.256 30.803 19.256 31.291C19.256 31.648 18.808 32.034 18.083 32.034C17.352 32.034 16.933 31.742 16.563 31.483C16.308 31.305 16.066 31.136 15.778 31.136C15.359 31.136 15.03 31.49 15.03 31.94C15.03 32.603 15.937 33.262 17.132 33.494V33.953C17.132 34.457 17.543 34.867 18.049 34.867C18.554 34.867 18.964 34.457 18.964 33.953L18.961 33.467C20.224 33.158 20.97 32.274 20.97 31.069V31.069Z" fill="white"/>
<path d="M31 26C33.7614 26 36 23.7614 36 21C36 18.2386 33.7614 16 31 16C28.2386 16 26 18.2386 26 21C26 23.7614 28.2386 26 31 26Z" fill="#FF7892"/>
<path d="M5 26C7.76142 26 10 23.7614 10 21C10 18.2386 7.76142 16 5 16C2.23858 16 0 18.2386 0 21C0 23.7614 2.23858 26 5 26Z" fill="#FF7892"/>
<path d="M29 14C28.744 14 28.488 13.902 28.293 13.707C25.716 11.132 21.238 11.971 21.194 11.981C20.646 12.09 20.127 11.734 20.02 11.194C19.913 10.653 20.262 10.128 20.803 10.02C21.03 9.974 26.366 8.955 29.706 12.293C30.097 12.684 30.097 13.316 29.706 13.707C29.512 13.902 29.256 14 29 14V14ZM7.00001 14C6.74401 14 6.48801 13.902 6.29301 13.707C5.90201 13.316 5.90201 12.684 6.29301 12.293C9.63301 8.952 14.971 9.975 15.196 10.02C15.738 10.128 16.089 10.655 15.98 11.197C15.872 11.737 15.347 12.089 14.805 11.982C14.736 11.967 10.276 11.139 7.70701 13.708C7.51201 13.902 7.25601 14 7.00001 14V14ZM26 19C25.744 19 25.488 18.902 25.293 18.707C23.989 17.402 21.203 17.733 20.241 17.971C19.701 18.103 19.164 17.776 19.03 17.241C18.897 16.705 19.222 16.164 19.758 16.03C19.944 15.984 24.333 14.919 26.707 17.293C27.098 17.684 27.098 18.316 26.707 18.707C26.512 18.902 26.256 19 26 19ZM10 19C9.74401 19 9.48801 18.902 9.29301 18.707C8.90201 18.316 8.90201 17.684 9.29301 17.293C11.666 14.92 16.057 15.984 16.243 16.03C16.778 16.164 17.103 16.705 16.97 17.241C16.838 17.777 16.297 18.104 15.76 17.971C14.796 17.734 12.011 17.404 10.708 18.707C10.512 18.902 10.256 19 10 19V19Z" fill="#664500"/>
</svg>
