<svg width="36" height="36" viewBox="0 0 36 36" fill="none" xmlns="http://www.w3.org/2000/svg">
<path d="M36 18C36 27.941 27.941 36 18 36C8.06 36 0 27.941 0 18C0 8.06 8.06 0 18 0C27.941 0 36 8.06 36 18Z" fill="#FFCC4D"/>
<path d="M7 21.263C7 25.227 11.596 30.263 18 30.263C24.404 30.263 29 25.263 29 21.263C29 21.263 18.667 24.019 7 21.263Z" fill="#664500"/>
<path d="M12 23.003V29.964C12 32.964 14 35.964 18 35.964C22 35.964 24 32.964 24 29.964V23.044C17.709 24.336 12 23.003 12 23.003V23.003Z" fill="#5D9040"/>
<path d="M20.97 31.069C20.97 29.701 19.591 29.168 18.483 28.74C17.746 28.456 17.049 28.186 17.049 27.797C17.049 27.154 17.91 27.122 18.083 27.122C18.692 27.122 18.995 27.351 19.263 27.552C19.468 27.707 19.681 27.867 19.976 27.867C20.526 27.867 20.777 27.479 20.777 27.12C20.777 26.403 19.898 25.896 18.965 25.683V25.3C18.965 24.795 18.554 24.384 18.049 24.384C17.544 24.384 17.133 24.795 17.133 25.3V25.715C16.018 26.039 15.334 26.86 15.334 27.894C15.334 29.172 16.595 29.697 17.707 30.159C18.504 30.49 19.256 30.803 19.256 31.291C19.256 31.648 18.808 32.034 18.083 32.034C17.352 32.034 16.933 31.742 16.563 31.483C16.308 31.305 16.066 31.136 15.778 31.136C15.359 31.136 15.03 31.49 15.03 31.94C15.03 32.603 15.937 33.262 17.132 33.494V33.953C17.132 34.457 17.543 34.867 18.049 34.867C18.554 34.867 18.964 34.457 18.964 33.953L18.961 33.467C20.224 33.158 20.97 32.274 20.97 31.069V31.069Z" fill="white"/>
<path d="M17.312 17.612C17.136 17.469 16.885 17.465 16.702 17.598C16.69 17.607 15.442 18.5 13 18.5C10.559 18.5 9.31 17.607 9.3 17.6C9.117 17.463 8.865 17.467 8.689 17.609C8.511 17.751 8.451 17.995 8.543 18.203C8.603 18.338 10.043 21.5 13 21.5C15.958 21.5 17.397 18.338 17.457 18.203C17.549 17.996 17.489 17.754 17.312 17.612ZM27.312 17.612C27.136 17.469 26.886 17.464 26.702 17.598C26.69 17.607 25.441 18.5 23 18.5C20.56 18.5 19.31 17.607 19.3 17.6C19.117 17.463 18.866 17.467 18.689 17.609C18.511 17.751 18.451 17.995 18.543 18.203C18.603 18.338 20.043 21.5 23 21.5C25.958 21.5 27.397 18.338 27.457 18.203C27.549 17.996 27.489 17.754 27.312 17.612ZM6 14C5.448 14 5 13.552 5 13C5 12.449 5.445 12.002 5.996 12C6.152 11.998 9.565 11.914 12.201 8.39998C12.532 7.95998 13.158 7.86799 13.601 8.19999C14.043 8.53099 14.132 9.15799 13.801 9.59999C10.538 13.95 6.184 14 6 14ZM30 14C29.816 14 25.463 13.95 22.2 9.59999C21.868 9.15799 21.958 8.53099 22.4 8.19999C22.841 7.86699 23.467 7.95798 23.799 8.39998C26.44 11.921 29.86 11.999 30.005 12C30.555 12.006 30.999 12.456 30.996 13.005C30.994 13.556 30.55 14 30 14Z" fill="#664500"/>
</svg>
