<svg width="36" height="36" viewBox="0 0 36 36" fill="none" xmlns="http://www.w3.org/2000/svg">
<path d="M36 18C36 27.941 27.941 36 18 36C8.06 36 0 27.941 0 18C0 8.06 8.06 0 18 0C27.941 0 36 8.06 36 18Z" fill="#FFCC4D"/>
<path d="M15.813 17.888C15.637 18.031 15.386 18.035 15.203 17.902C15.19 17.892 13.942 17 11.5 17C9.05902 17 7.81002 17.893 7.80002 17.9C7.61702 18.037 7.36502 18.033 7.18902 17.891C7.01102 17.749 6.95103 17.505 7.04303 17.297C7.10303 17.162 8.54302 14 11.5 14C14.458 14 15.897 17.162 15.957 17.297C16.049 17.504 15.989 17.746 15.813 17.888ZM28.812 17.888C28.636 18.031 28.386 18.036 28.202 17.902C28.19 17.892 26.941 17 24.5 17C22.06 17 20.81 17.893 20.8 17.9C20.617 18.037 20.366 18.033 20.189 17.891C20.011 17.749 19.951 17.505 20.043 17.297C20.102 17.162 21.543 14 24.5 14C27.458 14 28.898 17.162 28.957 17.297C29.049 17.504 28.989 17.746 28.812 17.888ZM13.114 6.00199C13.666 6.02299 14.096 6.48799 14.075 7.03999C14.053 7.58999 13.591 8.01899 13.041 7.99999C12.885 7.99599 9.47102 7.94799 6.70202 11.357C6.35402 11.784 5.72502 11.851 5.29502 11.502C4.86602 11.154 4.80102 10.524 5.15002 10.095C8.57802 5.87599 12.93 5.99499 13.114 6.00199ZM22.517 7.67399C22.698 7.64099 26.99 6.91099 30.978 10.607C31.384 10.982 31.408 11.615 31.031 12.02C30.656 12.427 30.024 12.449 29.618 12.074C26.39 9.08199 23.01 9.61799 22.868 9.64199C22.326 9.73499 21.808 9.37199 21.713 8.82999C21.618 8.28899 21.976 7.77299 22.517 7.67399Z" fill="#664500"/>
<path d="M7 21.263C7 25.227 11.596 30.263 18 30.263C24.404 30.263 29 25.263 29 21.263C29 21.263 18.667 24.019 7 21.263Z" fill="#664500"/>
<path d="M24 28.5V27.5C26 27.5 28 24.5 28 23.5C28.5 22 29 22 29 24.5V32C29 32.825 28.325 33.5 27.5 33.5C26.675 33.5 26 32.825 26 32V28.5C26 29.05 25.55 29.5 25 29.5C24.45 29.5 24 29.05 24 28.5Z" fill="#5DADEC"/>
<path d="M12 23.003V29.964C12 32.964 14 35.964 18 35.964C22 35.964 24 32.964 24 29.964V23.044C17.709 24.336 12 23.003 12 23.003V23.003Z" fill="#5D9040"/>
<path d="M20.97 31.069C20.97 29.701 19.591 29.168 18.483 28.74C17.746 28.456 17.049 28.186 17.049 27.797C17.049 27.154 17.91 27.122 18.083 27.122C18.692 27.122 18.995 27.351 19.263 27.552C19.468 27.707 19.681 27.867 19.976 27.867C20.526 27.867 20.777 27.479 20.777 27.12C20.777 26.403 19.898 25.896 18.965 25.683V25.3C18.965 24.795 18.554 24.384 18.049 24.384C17.544 24.384 17.133 24.795 17.133 25.3V25.715C16.018 26.039 15.334 26.86 15.334 27.894C15.334 29.172 16.595 29.697 17.707 30.159C18.504 30.49 19.256 30.803 19.256 31.291C19.256 31.648 18.808 32.034 18.083 32.034C17.352 32.034 16.933 31.742 16.563 31.483C16.308 31.305 16.066 31.136 15.778 31.136C15.359 31.136 15.03 31.49 15.03 31.94C15.03 32.603 15.937 33.262 17.132 33.494V33.953C17.132 34.457 17.543 34.867 18.049 34.867C18.554 34.867 18.964 34.457 18.964 33.953L18.961 33.467C20.224 33.158 20.97 32.274 20.97 31.069V31.069Z" fill="white"/>
</svg>
