<svg width="36" height="36" viewBox="0 0 36 36" fill="none" xmlns="http://www.w3.org/2000/svg">
<path d="M36 18C36 27.941 27.941 36 18 36C8.06 36 0 27.941 0 18C0 8.06 8.06 0 18 0C27.941 0 36 8.06 36 18Z" fill="#FFCC4D"/>
<path d="M7 21.263C7 25.227 11.596 30.263 18 30.263C24.404 30.263 29 25.263 29 21.263C29 21.263 18.667 24.019 7 21.263Z" fill="#664500"/>
<path d="M12 23.003V29.964C12 32.964 14 35.964 18 35.964C22 35.964 24 32.964 24 29.964V23.044C17.709 24.336 12 23.003 12 23.003V23.003Z" fill="#5D9040"/>
<path d="M20.97 31.069C20.97 29.701 19.591 29.168 18.483 28.74C17.746 28.456 17.049 28.186 17.049 27.797C17.049 27.154 17.91 27.122 18.083 27.122C18.692 27.122 18.995 27.351 19.263 27.552C19.468 27.707 19.681 27.867 19.976 27.867C20.526 27.867 20.777 27.479 20.777 27.12C20.777 26.403 19.898 25.896 18.965 25.683V25.3C18.965 24.795 18.554 24.384 18.049 24.384C17.544 24.384 17.133 24.795 17.133 25.3V25.715C16.018 26.039 15.334 26.86 15.334 27.894C15.334 29.172 16.595 29.697 17.707 30.159C18.504 30.49 19.256 30.803 19.256 31.291C19.256 31.648 18.808 32.034 18.083 32.034C17.352 32.034 16.933 31.742 16.563 31.483C16.308 31.305 16.066 31.136 15.778 31.136C15.359 31.136 15.03 31.49 15.03 31.94C15.03 32.603 15.937 33.262 17.132 33.494V33.953C17.132 34.457 17.543 34.867 18.049 34.867C18.554 34.867 18.964 34.457 18.964 33.953L18.961 33.467C20.224 33.158 20.97 32.274 20.97 31.069V31.069Z" fill="white"/>
<path d="M26.624 14.024C26.624 15.738 25.686 17.128 24.528 17.128C23.371 17.128 22.432 15.738 22.432 14.024C22.432 12.31 23.37 10.92 24.528 10.92C25.686 10.92 26.624 12.31 26.624 14.024ZM9.45697 14.024C9.45697 15.738 10.395 17.128 11.553 17.128C12.71 17.128 13.649 15.738 13.649 14.024C13.649 12.31 12.711 10.92 11.553 10.92C10.395 10.92 9.45697 12.31 9.45697 14.024Z" fill="#65471B"/>
<path d="M34.808 9.62699C34.637 9.46099 33.541 9.90099 32.432 9.33599C30.144 8.16999 24.362 7.04499 20.598 9.71199C20.195 9.99699 18.511 10.045 18.04 10.025C17.569 10.046 15.885 9.99799 15.482 9.71199C11.719 7.04499 5.93702 8.16999 3.64902 9.33599C2.54002 9.90099 1.44402 9.46099 1.27302 9.62699C1.02602 9.86599 1.02602 10.823 1.27402 11.063C1.52002 11.302 2.75102 11.578 2.99602 12.295C3.24302 13.013 3.24502 17.253 5.20902 18.719C7.04802 20.091 11.338 20.504 14.057 18.957C16.429 17.608 16.346 14.768 16.781 13.076C16.936 12.473 17.373 12.169 18.041 12.169C18.709 12.169 19.146 12.473 19.301 13.076C19.736 14.767 19.652 17.608 22.025 18.957C24.744 20.503 29.034 20.09 30.872 18.719C32.837 17.254 32.839 13.013 33.085 12.295C33.33 11.578 34.561 11.301 34.807 11.063C35.055 10.823 35.056 9.86599 34.808 9.62699V9.62699ZM14.614 13.277C14.537 14.382 14.34 16.504 13.017 17.257C12.206 17.719 11.149 18 10.043 18H10.042C8.81702 18 7.11902 17.653 6.45502 17.158C5.62502 16.539 5.30902 13.991 5.19002 13.038C5.11402 12.431 4.91002 10.948 5.57802 10.72C6.63802 10.359 8.11702 10.077 9.63002 10.077C10.323 10.077 12.651 10.12 13.785 10.818C14.79 11.435 14.657 12.669 14.614 13.277V13.277ZM30.892 13.024C30.773 13.978 30.457 16.539 29.627 17.158C28.963 17.653 27.265 18 26.04 18H26.039C24.932 18 23.876 17.719 23.064 17.257C21.741 16.505 21.544 14.396 21.467 13.291C21.425 12.683 21.291 11.44 22.296 10.823C23.431 10.125 25.758 10.077 26.451 10.077C27.964 10.077 29.442 10.354 30.503 10.715C31.171 10.943 30.968 12.417 30.892 13.024V13.024Z" fill="#292F33"/>
</svg>
