<svg width="36" height="36" viewBox="0 0 36 36" fill="none" xmlns="http://www.w3.org/2000/svg">
<path d="M35 18.619C35 14.825 31.925 11.75 28.131 11.75C27.152 11.75 25.379 12.328 25.379 12.328L12.253 13.712C12.253 13.712 9.536 12.131 7.87 12.131C4.075 12.131 1 15.206 1 19C1 19.237 1.012 19.471 1.035 19.702C1.406 28.763 8.849 36 18 36C27.389 36 35 28.389 35 19C35 18.948 34.991 18.899 34.988 18.847C34.991 18.771 35 18.696 35 18.619Z" fill="#FFCB4C"/>
<path d="M30.126 13.751C29.185 13.507 29.117 14.137 27.924 13.997C26.756 13.86 28.353 13.258 27.729 12.905C27.519 12.786 27.218 12.761 26.847 12.807C25.795 12.936 9.893 13.351 9.3 13.637C8.773 13.891 8.461 14.185 7.982 13.738C7.379 13.176 6.516 13.5 6.266 13.687C5.944 13.929 5.877 14.409 6.5 14.964C7.121 15.384 8.173 15.823 9.965 16.123C10.162 16.156 10.33 16.169 10.487 16.175C11.714 16.216 11.884 14.505 13.617 14.459C14.753 14.429 24.77 15.529 25.595 15.417C25.696 15.403 25.802 15.393 25.924 15.393C27.487 15.393 27.85 16.843 29.513 15.709C30.218 15.136 31.324 14.061 30.126 13.751V13.751Z" fill="#F19020"/>
<path d="M5.93799 9.11499C7.46099 10.642 8.54199 12.26 9.29999 13.638C9.86599 14.667 10.256 15.567 10.487 16.176C11.714 16.217 11.884 15.506 13.617 15.46C14.753 15.43 15.4 16.229 16.24 16.689C17.742 17.511 18.809 15.959 19.959 15.959C20.809 15.959 22.178 17.166 23.135 16.723C24.522 16.08 24.77 15.532 25.595 15.419C25.917 14.628 26.336 13.723 26.847 12.81C27.587 11.486 28.525 10.145 29.688 9.11699H5.93799V9.11499Z" fill="#F36C24"/>
<path d="M29.306 9.435C30.587 8.172 6.267 9.451 6.965 10.223C7.953 11.317 9.165 13.376 9.165 13.376C9.165 13.376 13.922 15.781 17.516 12.75C20.016 14.25 23.516 13.719 25.078 11.141C25.078 11.141 26.295 11.594 27.529 11.672C27.529 11.672 28.482 10.247 29.306 9.435V9.435Z" fill="#CE5C1F"/>
<path d="M18 33.588C20.3925 33.588 22.332 31.3718 22.332 28.638C22.332 25.9042 20.3925 23.688 18 23.688C15.6075 23.688 13.668 25.9042 13.668 28.638C13.668 31.3718 15.6075 33.588 18 33.588Z" fill="#65471B"/>
<path d="M14 19.668C14 21.141 13.104 22.335 12 22.335C10.895 22.335 10 21.141 10 19.668C10 18.195 10.895 17.001 12 17.001C13.104 17.001 14 18.195 14 19.668ZM26 19.667C26 21.14 25.105 22.334 24 22.334C22.895 22.334 22 21.14 22 19.667C22 18.195 22.896 17 24 17C25.105 17.001 26 18.195 26 19.667V19.667Z" fill="#65471B"/>
<path d="M31.125 3.725C30.885 3.725 30.658 3.77 30.439 3.834C29.751 2.989 28.716 2.438 27.541 2.438C27.454 2.438 27.372 2.458 27.286 2.464C26.552 1.637 25.492 1.105 24.299 1.105C22.794 1.105 21.499 1.944 20.813 3.171C20.467 2.373 19.674 1.814 18.749 1.814C18.031 1.814 17.4 2.156 16.988 2.679C16.48 1.209 15.1 0.147003 13.458 0.147003C12.135 0.147003 10.978 0.836003 10.31 1.87C10.126 1.841 9.94201 1.812 9.75001 1.812C8.31801 1.812 7.08901 2.624 6.45701 3.804C6.25401 3.766 6.04701 3.741 5.83301 3.741C3.96901 3.741 2.45801 5.252 2.45801 7.116C2.45801 8.98 3.96901 10.491 5.83301 10.491C6.42101 10.491 6.96801 10.332 7.44701 10.066C7.82301 10.348 8.28501 10.522 8.79201 10.522C8.93701 10.522 9.07701 10.506 9.21401 10.479C10.069 11.858 11.581 12.782 13.323 12.782C15.032 12.782 16.529 11.897 17.396 10.565C18.116 11.447 19.198 12.022 20.425 12.022C22.24 12.022 23.752 10.784 24.201 9.111C24.235 9.112 24.266 9.121 24.3 9.121C24.583 9.121 24.859 9.09 25.126 9.034C25.78 9.59 26.617 9.938 27.543 9.938C28.717 9.938 29.753 9.387 30.44 8.542C30.659 8.606 30.886 8.651 31.126 8.651C32.486 8.651 33.589 7.548 33.589 6.188C33.589 4.828 32.485 3.725 31.125 3.725V3.725Z" fill="#CCD6DD"/>
<path d="M27.795 7.888C28.9664 7.888 29.916 6.93839 29.916 5.767C29.916 4.5956 28.9664 3.646 27.795 3.646C26.6236 3.646 25.674 4.5956 25.674 5.767C25.674 6.93839 26.6236 7.888 27.795 7.888Z" fill="#E1E8ED"/>
<path d="M19.876 5.903C19.876 4.71 18.909 3.742 17.716 3.742C17.348 3.742 17.006 3.843 16.703 4.005C16.452 3.404 15.859 2.981 15.166 2.981C14.599 2.981 14.099 3.266 13.798 3.699C13.128 3.076 12.237 2.686 11.25 2.686C9.49502 2.686 8.03402 3.896 7.62502 5.524C7.26002 5.157 6.75502 4.929 6.19602 4.929C5.08502 4.929 4.18402 5.83 4.18402 6.941C4.18402 8.052 5.08502 8.953 6.19602 8.953C6.89902 8.953 7.51502 8.592 7.87502 8.046C8.39202 9.127 9.40402 9.919 10.624 10.125C11.014 10.795 11.731 11.25 12.562 11.25C13.636 11.25 14.531 10.496 14.755 9.49C15.079 9.67 15.446 9.782 15.842 9.782C16.912 9.782 17.804 9.033 18.032 8.032C19.074 7.877 19.876 6.988 19.876 5.903V5.903Z" fill="#E1E8ED"/>
<path d="M7 22C7 25.964 11.596 31 18 31C24.404 31 29 26 29 22C29 22 18.667 24.756 7 22Z" fill="#664500"/>
<path d="M12 24V29.964C12 32.964 14 35.964 18 35.964C22 35.964 24 32.964 24 29.964V24C17.709 25.292 12 24 12 24Z" fill="#5D9040"/>
<path d="M21 31.377C21 30.072 19.6071 29.5636 18.4879 29.1553C17.7434 28.8844 17.0394 28.6268 17.0394 28.2557C17.0394 27.6424 17.9091 27.6118 18.0838 27.6118C18.699 27.6118 19.0051 27.8303 19.2758 28.022C19.4828 28.1699 19.698 28.3225 19.996 28.3225C20.5515 28.3225 20.8051 27.9524 20.8051 27.6099C20.8051 26.926 19.9172 26.4423 18.9747 26.2391V25.8738C18.9747 25.3921 18.5596 25 18.0495 25C17.5394 25 17.1242 25.3921 17.1242 25.8738V26.2697C15.998 26.5787 15.3071 27.3619 15.3071 28.3483C15.3071 29.5674 16.5808 30.0682 17.704 30.5089C18.5091 30.8247 19.2687 31.1232 19.2687 31.5888C19.2687 31.9293 18.8162 32.2975 18.0838 32.2975C17.3455 32.2975 16.9222 32.019 16.5485 31.7719C16.2909 31.6021 16.0465 31.4409 15.7556 31.4409C15.3323 31.4409 15 31.7786 15 32.2079C15 32.8403 15.9162 33.4689 17.1232 33.6903V34.1281C17.1232 34.6089 17.5384 35 18.0495 35C18.5596 35 18.9737 34.6089 18.9737 34.1281L18.9707 33.6645C20.2465 33.3697 21 32.5265 21 31.377V31.377Z" fill="white"/>
</svg>
