<svg width="36" height="36" viewBox="0 0 36 36" fill="none" xmlns="http://www.w3.org/2000/svg">
<path d="M36 18C36 27.941 27.941 36 18 36C8.06 36 0 27.941 0 18C0 8.06 8.06 0 18 0C27.941 0 36 8.06 36 18Z" fill="#FFCC4D"/>
<path d="M7 21.263C7 25.227 11.596 30.263 18 30.263C24.404 30.263 29 25.263 29 21.263C29 21.263 18.667 24.019 7 21.263Z" fill="#664500"/>
<path d="M12 23.003V29.964C12 32.964 14 35.964 18 35.964C22 35.964 24 32.964 24 29.964V23.044C17.709 24.336 12 23.003 12 23.003V23.003Z" fill="#5D9040"/>
<path d="M20.97 31.069C20.97 29.701 19.591 29.168 18.483 28.74C17.746 28.456 17.049 28.186 17.049 27.797C17.049 27.154 17.91 27.122 18.083 27.122C18.692 27.122 18.995 27.351 19.263 27.552C19.468 27.707 19.681 27.867 19.976 27.867C20.526 27.867 20.777 27.479 20.777 27.12C20.777 26.403 19.898 25.896 18.965 25.683V25.3C18.965 24.795 18.554 24.384 18.049 24.384C17.544 24.384 17.133 24.795 17.133 25.3V25.715C16.018 26.039 15.334 26.86 15.334 27.894C15.334 29.172 16.595 29.697 17.707 30.159C18.504 30.49 19.256 30.803 19.256 31.291C19.256 31.648 18.808 32.034 18.083 32.034C17.352 32.034 16.933 31.742 16.563 31.483C16.308 31.305 16.066 31.136 15.778 31.136C15.359 31.136 15.03 31.49 15.03 31.94C15.03 32.603 15.937 33.262 17.132 33.494V33.953C17.132 34.457 17.543 34.867 18.049 34.867C18.554 34.867 18.964 34.457 18.964 33.953L18.961 33.467C20.224 33.158 20.97 32.274 20.97 31.069V31.069Z" fill="white"/>
<path d="M12.176 18.416C13.6379 18.416 14.823 16.7568 14.823 14.71C14.823 12.6632 13.6379 11.004 12.176 11.004C10.7141 11.004 9.52899 12.6632 9.52899 14.71C9.52899 16.7568 10.7141 18.416 12.176 18.416Z" fill="#65471B"/>
<path d="M24.882 21.176C28.6828 21.176 31.764 18.0948 31.764 14.294C31.764 10.4932 28.6828 7.41199 24.882 7.41199C21.0812 7.41199 18 10.4932 18 14.294C18 18.0948 21.0812 21.176 24.882 21.176Z" fill="#F4F7F9"/>
<path d="M14.825 9.94601C14.503 9.94601 14.185 9.80001 13.977 9.52301C12.986 8.20201 11.949 7.49401 10.894 7.41901C9.50398 7.32401 8.37098 8.36601 8.15998 8.57701C7.74598 8.99101 7.07598 8.99101 6.66298 8.57701C6.24898 8.16301 6.24898 7.49301 6.66298 7.08001C7.11998 6.62301 8.79198 5.14401 11.044 5.30701C12.739 5.42701 14.295 6.41801 15.671 8.25201C16.022 8.72001 15.927 9.38401 15.46 9.73401C15.268 9.87701 15.045 9.94601 14.825 9.94601Z" fill="#65471B"/>
<path d="M32.824 36C32.239 36 31.765 35.526 31.765 34.941V14.824C31.765 14.239 32.239 13.765 32.824 13.765C33.409 13.765 33.883 14.239 33.883 14.824V34.942C33.882 35.526 33.409 36 32.824 36Z" fill="#292F33"/>
<path d="M32.824 12.706C32.77 12.706 32.719 12.718 32.666 12.722C31.934 9.094 28.723 6.353 24.882 6.353C20.503 6.353 16.941 9.915 16.941 14.294C16.941 18.673 20.503 22.235 24.882 22.235C28.35 22.235 31.298 19.997 32.378 16.892C32.522 16.923 32.67 16.941 32.823 16.941C33.993 16.941 34.941 15.993 34.941 14.823C34.941 13.654 33.993 12.706 32.824 12.706V12.706ZM24.882 20.118C21.671 20.118 19.059 17.506 19.059 14.294C19.059 11.082 21.672 8.47 24.882 8.47C28.093 8.47 30.706 11.082 30.706 14.294C30.706 17.506 28.093 20.118 24.882 20.118Z" fill="#67757F"/>
<path d="M28.049 9.41101C27.137 8.81801 26.051 8.47101 24.882 8.47101C21.666 8.47101 19.058 11.078 19.058 14.295C19.058 15.464 19.406 16.55 19.998 17.462L28.049 9.41101ZM22.397 19.555C23.152 19.912 23.992 20.118 24.882 20.118C28.098 20.118 30.706 17.511 30.706 14.294C30.706 13.404 30.5 12.563 30.143 11.809L22.397 19.555Z" fill="#BDDDF4"/>
</svg>
