<svg width="36" height="36" viewBox="0 0 36 36" fill="none" xmlns="http://www.w3.org/2000/svg">
<path d="M36 18C36 27.941 27.941 36 18 36C8.06 36 0 27.941 0 18C0 8.06 8.06 0 18 0C27.941 0 36 8.06 36 18Z" fill="#FFCC4D"/>
<path d="M7 21.263C7 25.227 11.596 30.263 18 30.263C24.404 30.263 29 25.263 29 21.263C29 21.263 18.667 24.019 7 21.263Z" fill="#664500"/>
<path d="M12 23.003V29.964C12 32.964 14 35.964 18 35.964C22 35.964 24 32.964 24 29.964V23.044C17.709 24.336 12 23.003 12 23.003V23.003Z" fill="#5D9040"/>
<path d="M20.97 31.069C20.97 29.701 19.591 29.168 18.483 28.74C17.746 28.456 17.049 28.186 17.049 27.797C17.049 27.154 17.91 27.122 18.083 27.122C18.692 27.122 18.995 27.351 19.263 27.552C19.468 27.707 19.681 27.867 19.976 27.867C20.526 27.867 20.777 27.479 20.777 27.12C20.777 26.403 19.898 25.896 18.965 25.683V25.3C18.965 24.795 18.554 24.384 18.049 24.384C17.544 24.384 17.133 24.795 17.133 25.3V25.715C16.018 26.039 15.334 26.86 15.334 27.894C15.334 29.172 16.595 29.697 17.707 30.159C18.504 30.49 19.256 30.803 19.256 31.291C19.256 31.648 18.808 32.034 18.083 32.034C17.352 32.034 16.933 31.742 16.563 31.483C16.308 31.305 16.066 31.136 15.778 31.136C15.359 31.136 15.03 31.49 15.03 31.94C15.03 32.603 15.937 33.262 17.132 33.494V33.953C17.132 34.457 17.543 34.867 18.049 34.867C18.554 34.867 18.964 34.457 18.964 33.953L18.961 33.467C20.224 33.158 20.97 32.274 20.97 31.069V31.069Z" fill="white"/>
<path d="M31.001 11C30.696 11 30.397 10.862 30.2 10.6C27.56 7.079 24.139 7.002 23.994 7C23.444 6.994 23 6.544 23.003 5.995C23.006 5.444 23.45 5 24 5C24.184 5 28.537 5.05 31.8 9.4C32.132 9.842 32.042 10.469 31.6 10.8C31.42 10.935 31.21 11 31.001 11ZM4.99901 11C4.79101 11 4.58001 10.935 4.40001 10.8C3.95801 10.469 3.86901 9.842 4.20001 9.4C7.46201 5.05 11.816 5 12 5C12.552 5 13 5.448 13 6C13 6.551 12.555 6.998 12.004 7C11.849 7.002 8.43601 7.086 5.80001 10.6C5.60401 10.862 5.30301 11 4.99901 11Z" fill="#664500"/>
<path d="M12 18C13.3807 18 14.5 16.433 14.5 14.5C14.5 12.567 13.3807 11 12 11C10.6193 11 9.5 12.567 9.5 14.5C9.5 16.433 10.6193 18 12 18Z" fill="#664500"/>
<path d="M24 18C25.3807 18 26.5 16.433 26.5 14.5C26.5 12.567 25.3807 11 24 11C22.6193 11 21.5 12.567 21.5 14.5C21.5 16.433 22.6193 18 24 18Z" fill="#664500"/>
</svg>
