<svg width="36" height="36" viewBox="0 0 36 36" fill="none" xmlns="http://www.w3.org/2000/svg">
<path d="M36 18C36 27.941 27.941 36 18 36C8.06 36 0 27.941 0 18C0 8.06 8.06 0 18 0C27.941 0 36 8.06 36 18Z" fill="#FFCC4D"/>
<path d="M7 21.263C7 25.227 11.596 30.263 18 30.263C24.404 30.263 29 25.263 29 21.263C29 21.263 18.667 24.019 7 21.263Z" fill="#664500"/>
<path d="M12 23.003V29.964C12 32.964 14 35.964 18 35.964C22 35.964 24 32.964 24 29.964V23.044C17.709 24.336 12 23.003 12 23.003V23.003Z" fill="#5D9040"/>
<path d="M20.97 31.069C20.97 29.701 19.591 29.168 18.483 28.74C17.746 28.456 17.049 28.186 17.049 27.797C17.049 27.154 17.91 27.122 18.083 27.122C18.692 27.122 18.995 27.351 19.263 27.552C19.468 27.707 19.681 27.867 19.976 27.867C20.526 27.867 20.777 27.479 20.777 27.12C20.777 26.403 19.898 25.896 18.965 25.683V25.3C18.965 24.795 18.554 24.384 18.049 24.384C17.544 24.384 17.133 24.795 17.133 25.3V25.715C16.018 26.039 15.334 26.86 15.334 27.894C15.334 29.172 16.595 29.697 17.707 30.159C18.504 30.49 19.256 30.803 19.256 31.291C19.256 31.648 18.808 32.034 18.083 32.034C17.352 32.034 16.933 31.742 16.563 31.483C16.308 31.305 16.066 31.136 15.778 31.136C15.359 31.136 15.03 31.49 15.03 31.94C15.03 32.603 15.937 33.262 17.132 33.494V33.953C17.132 34.457 17.543 34.867 18.049 34.867C18.554 34.867 18.964 34.457 18.964 33.953L18.961 33.467C20.224 33.158 20.97 32.274 20.97 31.069V31.069Z" fill="white"/>
<path d="M11.5 20.5C12.8807 20.5 14 18.933 14 17C14 15.067 12.8807 13.5 11.5 13.5C10.1193 13.5 9 15.067 9 17C9 18.933 10.1193 20.5 11.5 20.5Z" fill="#664500"/>
<path d="M24.5 20.5C25.8807 20.5 27 18.933 27 17C27 15.067 25.8807 13.5 24.5 13.5C23.1193 13.5 22 15.067 22 17C22 18.933 23.1193 20.5 24.5 20.5Z" fill="#664500"/>
<path d="M5.99901 13.5C5.79101 13.5 5.58001 13.435 5.40001 13.3C4.95801 12.969 4.86901 12.342 5.20001 11.9C8.46201 7.55 12.816 7.5 13 7.5C13.552 7.5 14 7.948 14 8.5C14 9.051 13.555 9.498 13.004 9.5C12.849 9.502 9.43601 9.586 6.80001 13.1C6.60401 13.362 6.30301 13.5 5.99901 13.5ZM30.001 13.5C29.696 13.5 29.397 13.362 29.2 13.1C26.559 9.579 23.139 9.501 22.994 9.5C22.444 9.494 22 9.044 22.003 8.495C22.006 7.944 22.45 7.5 23 7.5C23.184 7.5 27.537 7.55 30.8 11.9C31.132 12.342 31.042 12.969 30.6 13.3C30.42 13.435 30.21 13.5 30.001 13.5Z" fill="#664500"/>
<path d="M16 31C16 33.762 13.762 36 11 36C8.238 36 6 33.762 6 31C6 28.238 10 21 11 21C12 21 16 28.238 16 31Z" fill="#5DADEC"/>
</svg>
