<svg width="36" height="36" viewBox="0 0 36 36" fill="none" xmlns="http://www.w3.org/2000/svg">
<path d="M36 18C36 27.941 27.941 36 18 36C8.06 36 0 27.941 0 18C0 8.06 8.06 0 18 0C27.941 0 36 8.06 36 18Z" fill="#FFCC4D"/>
<path d="M18 11C26.749 11 34.033 15.509 35.656 21.484C35.878 20.356 36 19.192 36 18C36 8.06 27.941 0 18 0C8.06 0 0 8.06 0 18C0 19.192 0.123 20.356 0.344 21.484C1.967 15.509 9.252 11 18 11Z" fill="#BDDDF4"/>
<path d="M11.5 20C12.8807 20 14 18.433 14 16.5C14 14.567 12.8807 13 11.5 13C10.1193 13 9 14.567 9 16.5C9 18.433 10.1193 20 11.5 20Z" fill="#664500"/>
<path d="M24.5 20C25.8807 20 27 18.433 27 16.5C27 14.567 25.8807 13 24.5 13C23.1193 13 22 14.567 22 16.5C22 18.433 23.1193 20 24.5 20Z" fill="#664500"/>
<path d="M5.99901 12C5.79101 12 5.58001 11.935 5.40001 11.8C4.95801 11.469 4.86901 10.842 5.20001 10.4C8.46201 6.05 12.816 6 13 6C13.552 6 14 6.448 14 7C14 7.551 13.555 7.998 13.004 8C12.849 8.002 9.43601 8.086 6.80001 11.6C6.60401 11.862 6.30301 12 5.99901 12ZM30.001 12C29.696 12 29.397 11.862 29.2 11.6C26.56 8.079 23.139 8.002 22.994 8C22.444 7.994 22 7.544 22.003 6.995C22.006 6.444 22.45 6 23 6C23.184 6 27.537 6.05 30.8 10.4C31.132 10.842 31.042 11.469 30.6 11.8C30.42 11.935 30.21 12 30.001 12Z" fill="#664500"/>
<path d="M7 21.263C7 25.227 11.596 30.263 18 30.263C24.404 30.263 29 25.263 29 21.263C29 21.263 18.667 24.019 7 21.263Z" fill="#664500"/>
<path d="M12 23.003V29.964C12 32.964 14 35.964 18 35.964C22 35.964 24 32.964 24 29.964V23.044C17.709 24.336 12 23.003 12 23.003V23.003Z" fill="#5D9040"/>
<path d="M20.97 31.069C20.97 29.701 19.591 29.168 18.483 28.74C17.746 28.456 17.049 28.186 17.049 27.797C17.049 27.154 17.91 27.122 18.083 27.122C18.692 27.122 18.995 27.351 19.263 27.552C19.468 27.707 19.681 27.867 19.976 27.867C20.526 27.867 20.777 27.479 20.777 27.12C20.777 26.403 19.898 25.896 18.965 25.683V25.3C18.965 24.795 18.554 24.384 18.049 24.384C17.544 24.384 17.133 24.795 17.133 25.3V25.715C16.018 26.039 15.334 26.86 15.334 27.894C15.334 29.172 16.595 29.697 17.707 30.159C18.504 30.49 19.256 30.803 19.256 31.291C19.256 31.648 18.808 32.034 18.083 32.034C17.352 32.034 16.933 31.742 16.563 31.483C16.308 31.305 16.066 31.136 15.778 31.136C15.359 31.136 15.03 31.49 15.03 31.94C15.03 32.603 15.937 33.262 17.132 33.494V33.953C17.132 34.457 17.543 34.867 18.049 34.867C18.554 34.867 18.964 34.457 18.964 33.953L18.961 33.467C20.224 33.158 20.97 32.274 20.97 31.069V31.069Z" fill="white"/>
</svg>
