<svg width="36" height="36" viewBox="0 0 36 36" fill="none" xmlns="http://www.w3.org/2000/svg">
<path d="M36 18C36 27.941 27.941 36 18 36C8.06 36 0 27.941 0 18C0 8.06 8.06 0 18 0C27.941 0 36 8.06 36 18Z" fill="#FFCC4D"/>
<path d="M7 21.263C7 25.227 11.596 30.263 18 30.263C24.404 30.263 29 25.263 29 21.263C29 21.263 18.667 24.019 7 21.263Z" fill="#664500"/>
<path d="M12 23.003V29.964C12 32.964 14 35.964 18 35.964C22 35.964 24 32.964 24 29.964V23.044C17.709 24.336 12 23.003 12 23.003V23.003Z" fill="#5D9040"/>
<path d="M20.97 31.069C20.97 29.701 19.591 29.168 18.483 28.74C17.746 28.456 17.049 28.186 17.049 27.797C17.049 27.154 17.91 27.122 18.083 27.122C18.692 27.122 18.995 27.351 19.263 27.552C19.468 27.707 19.681 27.867 19.976 27.867C20.526 27.867 20.777 27.479 20.777 27.12C20.777 26.403 19.898 25.896 18.965 25.683V25.3C18.965 24.795 18.554 24.384 18.049 24.384C17.544 24.384 17.133 24.795 17.133 25.3V25.715C16.018 26.039 15.334 26.86 15.334 27.894C15.334 29.172 16.595 29.697 17.707 30.159C18.504 30.49 19.256 30.803 19.256 31.291C19.256 31.648 18.808 32.034 18.083 32.034C17.352 32.034 16.933 31.742 16.563 31.483C16.308 31.305 16.066 31.136 15.778 31.136C15.359 31.136 15.03 31.49 15.03 31.94C15.03 32.603 15.937 33.262 17.132 33.494V33.953C17.132 34.457 17.543 34.867 18.049 34.867C18.554 34.867 18.964 34.457 18.964 33.953L18.961 33.467C20.224 33.158 20.97 32.274 20.97 31.069V31.069Z" fill="white"/>
<path d="M15.707 15.293C12.452 12.038 7.22098 12 6.99998 12C6.44798 12 6.00098 12.447 6.00098 12.998C5.99998 13.55 6.44698 13.998 6.99898 14C7.02798 14 8.92398 14.022 10.982 14.737C10.389 15.377 9.99998 16.371 9.99998 17.5C9.99998 19.434 11.119 21 12.5 21C13.881 21 15 19.434 15 17.5C15 17.326 14.981 17.16 14.963 16.993C14.976 16.993 14.988 17 15 17C15.256 17 15.512 16.902 15.707 16.707C16.098 16.316 16.098 15.684 15.707 15.293ZM29 12C28.779 12 23.549 12.038 20.293 15.293C19.902 15.684 19.902 16.316 20.293 16.707C20.488 16.902 20.744 17 21 17C21.013 17 21.024 16.993 21.036 16.993C21.02 17.16 21 17.326 21 17.5C21 19.434 22.119 21 23.5 21C24.881 21 26 19.434 26 17.5C26 16.371 25.611 15.377 25.018 14.737C27.076 14.022 28.972 14 29.002 14C29.553 13.998 30 13.55 29.999 12.998C29.998 12.447 29.552 12 29 12Z" fill="#664500"/>
</svg>
