<svg width="36" height="36" viewBox="0 0 36 36" fill="none" xmlns="http://www.w3.org/2000/svg">
<path d="M36 18C36 27.941 27.941 36 18 36C8.06 36 0 27.941 0 18C0 8.06 8.06 0 18 0C27.941 0 36 8.06 36 18Z" fill="#FFCC4D"/>
<path d="M7 21.263C7 25.227 11.596 30.263 18 30.263C24.404 30.263 29 25.263 29 21.263C29 21.263 18.667 24.019 7 21.263Z" fill="#664500"/>
<path d="M12 23.003V29.964C12 32.964 14 35.964 18 35.964C22 35.964 24 32.964 24 29.964V23.044C17.709 24.336 12 23.003 12 23.003V23.003Z" fill="#5D9040"/>
<path d="M20.97 31.069C20.97 29.701 19.591 29.168 18.483 28.74C17.746 28.456 17.049 28.186 17.049 27.797C17.049 27.154 17.91 27.122 18.083 27.122C18.692 27.122 18.995 27.351 19.263 27.552C19.468 27.707 19.681 27.867 19.976 27.867C20.526 27.867 20.777 27.479 20.777 27.12C20.777 26.403 19.898 25.896 18.965 25.683V25.3C18.965 24.795 18.554 24.384 18.049 24.384C17.544 24.384 17.133 24.795 17.133 25.3V25.715C16.018 26.039 15.334 26.86 15.334 27.894C15.334 29.172 16.595 29.697 17.707 30.159C18.504 30.49 19.256 30.803 19.256 31.291C19.256 31.648 18.808 32.034 18.083 32.034C17.352 32.034 16.933 31.742 16.563 31.483C16.308 31.305 16.066 31.136 15.778 31.136C15.359 31.136 15.03 31.49 15.03 31.94C15.03 32.603 15.937 33.262 17.132 33.494V33.953C17.132 34.457 17.543 34.867 18.049 34.867C18.554 34.867 18.964 34.457 18.964 33.953L18.961 33.467C20.224 33.158 20.97 32.274 20.97 31.069V31.069Z" fill="white"/>
<path fill-rule="evenodd" clip-rule="evenodd" d="M1.23998 11.018C1.47998 11.257 2.67798 11.975 2.91698 12.693C3.15698 13.41 3.63698 17.477 5.07498 18.674C6.55798 19.906 12.152 19.448 13.223 18.914C15.62 17.719 15.914 14.383 16.338 12.693C16.577 11.736 18.015 11.736 18.015 11.736C18.015 11.736 19.453 11.736 19.693 12.692C20.117 14.383 20.413 17.719 22.808 18.913C23.88 19.448 29.474 19.907 30.959 18.675C32.395 17.478 32.874 13.411 33.114 12.693C33.352 11.976 34.552 11.258 34.791 11.019C35.032 10.78 35.032 9.823 34.791 9.583C34.312 9.105 28.657 8.679 22.568 9.344C21.353 9.477 20.891 9.822 18.014 9.822C15.139 9.822 14.675 9.476 13.461 9.344C7.37598 8.678 1.71998 9.104 1.23998 9.582C1.00098 9.821 1.00098 10.779 1.23998 11.018V11.018Z" fill="#292F33"/>
</svg>
