<svg width="36" height="36" viewBox="0 0 36 36" fill="none" xmlns="http://www.w3.org/2000/svg">
<path d="M36 18C36 27.941 27.941 36 18 36C8.06 36 0 27.941 0 18C0 8.06 8.06 0 18 0C27.941 0 36 8.06 36 18Z" fill="#FFCC4D"/>
<path d="M7 21.263C7 25.227 11.596 30.263 18 30.263C24.404 30.263 29 25.263 29 21.263C29 21.263 18.667 24.019 7 21.263Z" fill="#664500"/>
<path d="M12 23.003V29.964C12 32.964 14 35.964 18 35.964C22 35.964 24 32.964 24 29.964V23.044C17.709 24.336 12 23.003 12 23.003V23.003Z" fill="#5D9040"/>
<path d="M20.97 31.069C20.97 29.701 19.591 29.168 18.483 28.74C17.746 28.456 17.049 28.186 17.049 27.797C17.049 27.154 17.91 27.122 18.083 27.122C18.692 27.122 18.995 27.351 19.263 27.552C19.468 27.707 19.681 27.867 19.976 27.867C20.526 27.867 20.777 27.479 20.777 27.12C20.777 26.403 19.898 25.896 18.965 25.683V25.3C18.965 24.795 18.554 24.384 18.049 24.384C17.544 24.384 17.133 24.795 17.133 25.3V25.715C16.018 26.039 15.334 26.86 15.334 27.894C15.334 29.172 16.595 29.697 17.707 30.159C18.504 30.49 19.256 30.803 19.256 31.291C19.256 31.648 18.808 32.034 18.083 32.034C17.352 32.034 16.933 31.742 16.563 31.483C16.308 31.305 16.066 31.136 15.778 31.136C15.359 31.136 15.03 31.49 15.03 31.94C15.03 32.603 15.937 33.262 17.132 33.494V33.953C17.132 34.457 17.543 34.867 18.049 34.867C18.554 34.867 18.964 34.457 18.964 33.953L18.961 33.467C20.224 33.158 20.97 32.274 20.97 31.069V31.069Z" fill="white"/>
<path d="M30.335 12.068C29.432 14.813 26.85 16.783 23.841 16.783C23.697 16.783 23.552 16.778 23.406 16.769C21.929 16.676 20.564 16.114 19.456 15.185C19.492 15.68 19.532 16.182 19.592 16.725C19.744 18.113 20.476 19.207 21.708 19.888C22.528 20.342 23.508 20.576 24.521 20.64C26.255 20.749 28.091 20.36 29.394 19.731C30.771 19.066 31.666 17.869 31.85 16.446C32.033 15.031 31.496 13.522 30.335 12.068V12.068Z" fill="white"/>
<path d="M21.351 7.58299C20.054 8.13299 19.404 9.88399 19.374 12.872L19.413 12.94C20.31 14.259 21.786 15.164 23.501 15.272C23.615 15.279 23.729 15.283 23.842 15.283C26.476 15.283 28.691 13.346 29.095 10.759C28.98 10.654 28.874 10.547 28.752 10.443C25.037 7.27299 22.285 7.18599 21.351 7.58299V7.58299Z" fill="#65471B"/>
<path d="M23.841 16.783C26.85 16.783 29.432 14.813 30.335 12.068C29.981 11.625 29.564 11.188 29.094 10.759C28.69 13.346 26.475 15.283 23.841 15.283C23.728 15.283 23.614 15.279 23.5 15.272C21.785 15.164 20.309 14.259 19.412 12.94L19.373 12.872C19.366 13.573 19.394 14.345 19.456 15.185C20.564 16.114 21.929 16.676 23.406 16.769C23.552 16.779 23.697 16.783 23.841 16.783V16.783Z" fill="#F4900C"/>
<path d="M21.413 11.812C22.0244 11.812 22.52 11.3164 22.52 10.705C22.52 10.0936 22.0244 9.59799 21.413 9.59799C20.8017 9.59799 20.306 10.0936 20.306 10.705C20.306 11.3164 20.8017 11.812 21.413 11.812Z" fill="white"/>
<path d="M12.159 16.783C9.15003 16.783 6.56803 14.813 5.66503 12.068C4.50403 13.522 3.96803 15.031 4.15003 16.445C4.33503 17.868 5.22903 19.066 6.60603 19.73C7.90903 20.359 9.74403 20.748 11.479 20.639C12.492 20.575 13.472 20.342 14.292 19.887C15.523 19.206 16.255 18.112 16.408 16.724C16.468 16.182 16.508 15.682 16.544 15.188C15.441 16.111 14.074 16.675 12.594 16.768C12.448 16.779 12.303 16.783 12.159 16.783V16.783Z" fill="white"/>
<path d="M12.159 15.283C12.272 15.283 12.386 15.279 12.5 15.272C14.215 15.164 15.691 14.259 16.588 12.94L16.627 12.872C16.596 9.88401 15.947 8.13301 14.65 7.58301C13.716 7.18601 10.963 7.27301 7.24901 10.442C7.12701 10.546 7.02201 10.653 6.90601 10.758C7.31001 13.346 9.52501 15.283 12.159 15.283V15.283Z" fill="#65471B"/>
<path d="M16.626 12.872L16.587 12.94C15.69 14.259 14.214 15.164 12.499 15.272C12.385 15.279 12.271 15.283 12.158 15.283C9.524 15.283 7.309 13.346 6.905 10.759C6.435 11.188 6.018 11.625 5.664 12.068C6.567 14.813 9.149 16.783 12.158 16.783C12.302 16.783 12.447 16.778 12.593 16.769C14.073 16.676 15.44 16.112 16.543 15.189C16.605 14.348 16.634 13.575 16.626 12.872V12.872Z" fill="#F4900C"/>
<path d="M9.781 11.81C10.391 11.772 10.855 11.246 10.816 10.636C10.778 10.026 10.252 9.56199 9.642 9.59999C9.032 9.63799 8.568 10.164 8.606 10.774C8.645 11.384 9.171 11.848 9.781 11.81V11.81Z" fill="white"/>
</svg>
